<?xml version="1.0" encoding="UTF-8"?>
<svg id="Cutout_SVG" xmlns="http://www.w3.org/2000/svg" viewBox="0 0 1024 1024">
  <defs>
    <style>
      .cls-1 {
        fill: #231f20;
      }

      .cls-2 {
        fill: #414042;
      }
    </style>
  </defs>
  <g>
    <g id="VSC_Zonau">
      <path class="cls-2" d="M637.32007,696.78998c-30.89014-12.71002-68.63013-28.08002-107.05005-43.64001,35.3999-12.83997,69.16992-24.60999,88.01001-31.72998,32.23999-12.17999,95.29004-42.27002,111.05005-50.15002,15.76001-7.87994,93.84985-61.60999,111.04004-73.78998,17.19995-12.17999,50.1499-56.59998,50.86987-63.04999,.71997-6.44,2.86011-48,2.15015-55.88-.72021-7.88,2.1499-32.95001,17.90991-8.59003,15.76001,24.35004,12.17993,94.56,8.59985,101.73004-3.58984,7.15997-11.46997,33.66998-22.20996,47.27997-6.20996,9.54999-2.86987,20.78003-2.86987,20.78003,0,0,6.72998,14.89001,5.25,30.79999,0,0-4.28003,27.95001-10.97998,34.63-3.71021,3.70001-16.65015,7.14001-17.43018-3.58002-.80005-10.90997,3.1001-41.78998-.47998-45.38-3.57983-3.57996-11.45996,7.17004-22.20996,17.20001-10.75,10.03003-65.18994,55.88-80.95996,65.19-15.76001,9.32001-68.05005,33.66998-89.55005,40.12-7.94995,2.39001-23.26001,9.48999-41.13989,18.06Z"/>
      <path class="cls-2" d="M970.04004,863.57001c-4.29004,7.88-68.05005,40.82996-79.52002,53.00995-11.45996,12.18005-17.91016,21.49005-30.80005,20.78003-12.8999-.71997-53.72998,.71002-101.02002,1.42999-47.28003,.72003-194.85986-7.15997-250.73999-7.15997-113.90991,2.14996-203.46997,1.42999-252.8999,3.57996-49.43018,2.15002-83.1001,1.43005-96,1.43005s-19.34009-8.60004-35.1001-22.21002c-15.77002-13.60999-68.06006-51.58002-74.51001-58.03003-6.44995-6.44-7.87988-8.58997,24.36011-20.76996,25.68994-9.71002,113.2998-42.63,165.56982-63.21002,13.30005-5.23999,24.32007-9.67999,31.44019-12.72998,3.3999-1.46002,7.38989-3.17004,11.87988-5.10004,1.17993,2.85004,2.98999,5.62,5.59009,8.23004,5.63989,5.64996,13.61987,8.63,23.05005,8.63,12.26978,0,26.40991-5.19,32.18994-11.80005,5.87988-6.70996,5.70996-16.54999,5.55005-26.07001-.04004-2.64996-.09009-5.18994,.01001-7.40997,9.95996-4.23999,20.17993-8.59003,30.35986-12.90997,6.20996,1.85999,12.14014,3.92999,16.90015,6.08997,7.65991,3.48999,23.04004,8.5,39.31982,13.79999,16.55005,5.40002,37.16016,12.11005,42.07007,15.06,2.28003,1.36005,8.61011,4.48004,17.40015,8.65002-25.3501,10.10999-49.61011,20.67999-59.54004,26.46997-9.03003,5.27002-25.37012,13.49005-39.58008,20.33002-12.8501,6.19-23.94995,11.23004-26.33008,11.91003-5.02002,1.42999,74.51001,10.73999,138.27002,9.31,5.72998,0,78.08008,1.42999,118.91992,1.42999,28.12012,0,15.82007-10.85999,4.03003-18.09003-5.32983-3.27997-10.56982-5.81-11.90991-6.26001-4.30005-1.44-125.37012-55.88995-136.12012-62.32996-10.75-6.45001-66.62988-22.21002-82.38989-29.38-15.76001-7.16003-41.55005-12.89001-53.01001-14.32001-11.46997-1.44-7.06006,17.22998-8.1499,26.77002-1.13013,9.87994,1.69995,24.62994-3.32007,30.35999-5.01001,5.72998-29.18994,14.14996-40.65015,2.69-11.45996-11.47003,2.12012-29.77002,4.12012-36.17999,3.47998-11.17004,7.16016-21.5,8.59009-25.79004,1.43994-4.29999-3.58008-27.22998-12.89014-32.95996-9.30981-5.73004-60.35986-35.10004-66.80981-39.40002-6.44019-4.29999-33.49023-32.96002-41.37012-37.96997-7.87988-5.02002-26.51001-26.51001-32.23999-26.51001s-10.75,8.59998-13.61011,13.60999c-2.86987,5.02002-10.75,25.78998-21.48999,27.94-10.75,2.15002-16.47998-.71002-21.5-4.29999-5.01001-3.58002-9.30981-15.76001-8.58984-22.92004,.70996-7.16998,18.61987-34.38995,20.05981-37.96997,1.43018-3.58002,10.03003-25.78998,7.88013-31.52002-2.15015-5.73999-8.8501-24.95001-12.90015-38.69-7.00977-23.78998-7.13989-77.13,0-87.39996,21.02002-27.23004,17.25,10.64996,23.64014,31.03998,6.31006,20.10999,14.33008,49.91003,20.78003,67.10999,6.44995,17.19,51.57983,38.67999,76.65991,54.44,25.07007,15.76001,96,51.59003,96,51.59003,0,0,346.73999,138.97998,381.13013,155.45996,7.77002,3.72003,23.59985,10.69,43.80981,19.39001,69.34009,29.84003,190.25,80.07001,214.1001,89.5,30.81006,12.17999,13.61011,11.47003,9.31006,19.35004Z"/>
    </g>
    <g>
      <path class="cls-2" d="M511.99865,464.02366c157.52616,2.36898,287.09004-81.58287,297.14728-88.1533s21.49488-4.92782,24.94589-.8213,4.33842,17.97743,1.97201,21.90144-2.36641,10.03816-2.36641,12.8671,2.07061,12.04579,1.97201,19.25502c-.0986,7.20922-3.64821,22.08395-8.47963,26.64675s-20.21307,7.11797-26.03049,.54754c-5.81742-6.57043-7.19783-15.69603-7.88803-21.44516s-1.77481-11.13323-6.40902-8.85183-45.35616,20.89762-48.01837,29.20192c-2.66221,8.3043-2.07061,20.25883-.0986,27.55931,1.97201,7.30048-.5916,28.56313-10.45164,32.21337-9.86004,3.65024-20.90327,3.37647-26.32629-3.7415s-1.74194-29.77988-5.29155-35.37691-57.58261,14.23594-59.55461,18.7379-1.31467,45.26298-5.25869,50.37331-11.17471,13.38421-19.45714,11.80244c-8.28243-1.58177-13.40965-.85172-16.69633-8.51723-3.28668-7.6655-4.20695-17.52115-3.81255-20.56302,.3944-3.04187,.52587-5.23201,.7888-11.19407,.26293-5.96206,.65734-15.33101-7.88803-14.96598-8.54536,.36502-44.17296,1.21675-49.56311,.9734s-9.46563,7.54383-11.17471,9.73397-.65734,16.42608,.13147,20.80637,2.49788,16.33483,2.36641,23.92429c-.13147,7.58945-6.17896,28.27415-12.09498,31.92439-5.91602,3.65024-19.85154,8.39555-28.7913-2.19014s-9.33417-19.7113-9.86004-29.56694,2.36641-16.06106,3.68108-22.26646c1.31467-6.20541,3.54961-22.02312,1.44614-27.01178-2.10347-4.98866-4.56848-6.0229-8.5125-5.84038s-14.79005-.63879-23.26968-2.19014c-8.47963-1.55135-28.5941-4.47154-33.12972-5.11034-4.53562-.63879-5.91602-.91256-8.28243-.91256s-5.62022,5.01908-4.93002,12.59333c.6902,7.57425,2.85941,20.71511,3.25381,30.11448s-4.33842,23.17902-9.86004,27.28554c-5.52162,4.10652-20.70607,10.22067-26.8193,.18251-6.11322-10.03816-5.71882-13.41463-5.91602-21.9927-.1972-8.57806,4.04261-20.44134,4.43702-26.5555,.3944-6.11415,1.87341-20.35009-.6902-26.00796-2.56361-5.65787-34.31292-12.04579-46.53937-14.78347-12.22644-2.73768-13.01525-1.27758-13.21245,3.83275s1.97201,14.23594,1.97201,21.3539-3.15521,23.17902-9.46563,25.9167-17.15646,1.82512-20.90327-3.1027-9.46563-11.68077-9.07123-22.08395,3.35241-14.96598,3.54961-24.2741,.75007-15.33101-3.56898-18.98125c-4.31905-3.65024-31.23695-24.09158-37.94177-25.73419s-10.05724-2.46391-10.84604,2.37266-.493,23.90907-3.74681,27.74182c-3.25381,3.83275-16.36766,9.9469-27.0165,2.46391-10.64884-7.48299-7.78943-21.26265-7.69083-25.27791s5.71882-19.52878,4.93002-25.36917-9.86004-16.42608-9.86004-22.44898,6.40902-13.14086,17.15646-13.59714,13.60685,1.27758,21.19908,5.29285,101.88703,74.86034,295.83524,81.3091Z"/>
      <g id="Eye_Main">
        <path class="cls-2" d="M930.81871,239.65997c6.17993-4.59998,5.91992-4.98999,13.66992-8.14996,7.76001-3.15002,12.76001-4.07001,19.19995-5.52002,6.44006-1.44,18.67004-2.89001,18.27002-8.15002-.38989-5.26001-5.38989-7.88995-13.92993-8.67999-8.55005-.77997-28.53003-2.35999-37.6001-5.77997-9.07996-3.42004-19.19995-7.23004-20.51001-16.57001-1.31995-9.33002-2.10986-20.64001-4.20996-27.87-2.09998-7.23004-.79004-9.98999-5.91992-9.33002-5.12012,.65997-7.22998,3.28998-8.80005,12.48999-1.58008,9.20001-8.55005,20.77002-22.21997,20.10999-13.67004-.64996-37.34009-14.06-40.63-28.25995-3.28003-14.20001-4.98999-33.39001-6.82996-37.21002-1.84009-3.81-4.87012-7.09998-7.5-6.17999-2.62012,.91998-4.6001,.14001-5.91003,9.59998-1.31995,9.47003-2.63,24.59003-7.2301,29.98004-4.59985,5.38995-25.73999,5.47998-43.48999-3.39001-17.73999-8.87-27.40991-22.89001-28.09985-36.34003-.69006-13.45001-4.43005-21.53998-7.19006-21.83002-2.76001-.29999-8.08997,3.45001-8.88,9.07001s-2.07007,16.86005-5.91003,21c-3.84998,4.14001-12.52991,5.32001-15.88,5.03003-3.34998-.29999-42.5-11.23999-48.02002-21.69-5.52002-10.46002-3.1499-28.89001-5.90991-34.41998-2.76001-5.52002-2.67004-8.77002-6.51001-6.80005-3.8501,1.97003-8.87012,.99005-9.37012,8.48004-.48999,7.48999-1.57983,21.58997-9.2699,28.20001-7.69006,6.60999-14,12.62-42.39001,9.16998-28.40002-3.45001-45.26001-4.92999-47.42993-25.72998-2.17004-20.81006-3.17004-30.26001-9.19006-34.60004-6.01001-4.33002-10.69006-4.94-13.05994,.28003-2.36011,5.22998-2.40015,29.08997-5.46008,38.06-3.04993,8.96997-14.20007,18.04999-22.47998,17.94995-8.28003-.09998-34.44006,3.25-46.67004,3.25s-21.30005-6.43994-23.13989-16.03998c-1.84009-9.59998-2.36011-17.60999-5.78003-22.47998-3.42004-4.85999-7.1001-7.23004-11.18005-4.34003-4.06995,2.90002-7.22998,32.73999-9.45996,38.13-2.24011,5.39001-36.19006,22.08002-54.43005,13.60999-18.23999-8.47998-10.84998-18.25-15.47998-24.94995-4.63-6.71002-7.30005-4.54004-10.34998-2.37-3.05994,2.16998-5.92004,25.33997-6.91003,28.98999-.97998,3.64996-4.13989,11.53998-9.94995,13.81-5.82007,2.26001-35.6001,15.57001-47.13,15.38-11.54004-.20001-13.41003-10.95001-15.19006-16.77002-1.77002-5.81-4.33997-9.15997-8.77002-8.87-4.43994,.29999-9.56995,20.02002-10.45996,27.51001-.88,7.48999-14.97998,21.22998-24.18994,25.31-9.19995,4.07001-10.65002,5.51996-17.88013,5.64996-7.22998,.13-12.34985-4.07001-15.63989-13.92999s-7.1001-15.51996-13.93994-14.59998c-6.83008,.91998-8.28003,1.70996-9.46008,5.13-1.18005,3.41998-1.71008,31.28998-9.72998,39.31-8.02002,8.01996-24.72009,11.89996-36.15002,12.08997-11.43994,.20001-28.59998,2.17004-28.19995,5.92004,.38989,3.75,1.77002,7.29999,10.44995,8.27997,8.67993,.98999,29.17993,9.47003,37.85999,14.98999,8.68005,5.52002,21.40002,15.48004,21.89001,22.87,.48999,7.40002-4.83008,13.51001-9.16992,15.78003-4.34009,2.27002-8.78003,2.76001-14.98999,2.76001s-12.32007-2.85999-20.11011-3.06c-7.79004-.19-21.79004,4.44-22.29004,7.88995-.48999,3.45001,6.12012,7.30005,11.64014,8.88,5.52002,1.57001,27.02002,6.31,31.94995,8.57001,4.92993,2.27002,17.78003,6.64001,27.77002,8.88,9.98999,2.23004,50.21997,4.73004,60.46997,8.94,10.26001,4.21002,135.87,95.38,315.13,95.38,189.90002,0,302.30994-79.87,354.37-102.34998,0,0,15.96997-6.57001,30.69995-5.92004,14.71997,.66003,22.73999,4.47003,33.13013,4.61005,10.37988,.13,15.63989-2.90002,20.23999-3.03003,4.59985-.13,11.17993,3.54999,16.56995,3.16003,5.39001-.40002,10.65002-1.67004,16.03992-4.78003,5.39014-3.10999,10.12012-4.02997,11.17004-7.84003,1.04993-3.81995-1.70996-5.51996-9.72998-8.01996s-23.53003-2.23999-31.68005-5.79004c-8.1499-3.54999-20.51001-12.08997-20.63989-16.69-.13013-4.59998,.12988-7.22998,6.69995-14.59998,6.58008-7.35999,5.13-6.96002,11.31006-11.57001Zm-644.8501,39.17999s-1.31006,64.95001-46.27002,37.86005c-44.95996-27.08002-5-52.58002-5-52.58002,58.64014-36.54999,51.27002-16.57001,51.27002,14.71997Zm84.14001-1.04999c-25.76001,58.10999,5,80.72003-22.34998,80.46002-27.34009-.26001-34.17993-23.40002-34.17993-23.40002-17.09009-36.28998,19.45996-117.79999,57.57983-117.52997,38.13013,.25995,24.72009,2.35999-1.04993,60.46997Zm227.44006,95.71002c-7.1001,12.62-24.97998,8.94-36.81006,2.09998-11.83008-6.83002,5-39.70001,5-52.28998,1.31006-17.32001-12.89001-76.54999-65.46997-73.39001-52.59009,3.15002-71,51.31-68.89001,77.56,2.21008,20.65002,7.69006,45.82001-2.37,48.12s-13.41003,1.84003-22.60999-13.66998c-9.20007-15.51001-24.9801-46.79999,15.25-105.70001,40.22998-58.90002,130.94006-45.75,163.27991-3.15997,32.34009,42.59998,19.72009,107.81,12.62012,120.42999Zm87.35986-27.87c-6.30994,5.32001-22.67993,26.62-35.68994,4.33997-13.02002-22.28998,6.11011-36.08997-17.55005-85.39001-23.66992-49.29999-20.01001-49.62994-15.77991-49.88995,62.31995-3.95001,78.28992,58.56,78.28992,58.56,13.80005,43.58997-2.95996,67.04999-9.27002,72.38Zm66.46008-15.38c-19.13,0-25.01001-21.54999-25.64001-49.70001-.95996-42.96002,19.08008-31.23999,40.22998-20.31,23.07007,12.41998,29.58008,24.65002,29.38013,34.90002-.19006,10.25995-24.84009,35.10999-43.97009,35.10999Zm100.96008-56.21002c-19.05005-8.75-208.77002-98.78998-351.57007-98.78998-82.18994,2.38-261.28003,38.89001-318.12,83.40997-15.80994,12.39001-51.25-8.13-46.73999-38.45001,2.73999-18.37,200.55994-97.02997,367.97998-97.02997s372.71008,86.38,388.68005,94.13c15.97998,7.76001-23.66003,64.33997-40.22998,56.72998Z"/>
      </g>
    </g>
  </g>
  <g>
    <g id="VSC_Zonau-2" data-name="VSC_Zonau">
      <g>
        <path class="cls-1" d="M637.32007,696.78998c-30.89014-12.71002-68.63013-28.08002-107.05005-43.64001,35.3999-12.83997,69.16992-24.60999,88.01001-31.72998,32.23999-12.17999,95.29004-42.27002,111.05005-50.15002,15.76001-7.87994,93.84985-61.60999,111.04004-73.78998,17.19995-12.17999,50.1499-56.59998,50.86987-63.04999,.71997-6.44,2.86011-48,2.15015-55.88-.72021-7.88,2.1499-32.95001,17.90991-8.59003,15.76001,24.35004,12.17993,94.56,8.59985,101.73004-3.58984,7.15997-11.46997,33.66998-22.20996,47.27997-6.20996,9.54999-2.86987,20.78003-2.86987,20.78003,0,0,6.72998,14.89001,5.25,30.79999,0,0-4.28003,27.95001-10.97998,34.63-3.71021,3.70001-16.65015,7.14001-17.43018-3.58002-.80005-10.90997,3.1001-41.78998-.47998-45.38-3.57983-3.57996-11.45996,7.17004-22.20996,17.20001-10.75,10.03003-65.18994,55.88-80.95996,65.19-15.76001,9.32001-68.05005,33.66998-89.55005,40.12-7.94995,2.39001-23.26001,9.48999-41.13989,18.06Z"/>
        <path class="cls-1" d="M637.32007,696.78998c-30.89014-12.71002-68.63013-28.08002-107.05005-43.64001,35.3999-12.83997,69.16992-24.60999,88.01001-31.72998,32.23999-12.17999,95.29004-42.27002,111.05005-50.15002,15.76001-7.87994,93.84985-61.60999,111.04004-73.78998,17.19995-12.17999,50.1499-56.59998,50.86987-63.04999,.71997-6.44,2.86011-48,2.15015-55.88-.72021-7.88,2.1499-32.95001,17.90991-8.59003,15.76001,24.35004,12.17993,94.56,8.59985,101.73004-3.58984,7.15997-11.46997,33.66998-22.20996,47.27997-6.20996,9.54999-2.86987,20.78003-2.86987,20.78003,0,0,6.72998,14.89001,5.25,30.79999,0,0-4.28003,27.95001-10.97998,34.63-3.71021,3.70001-16.65015,7.14001-17.43018-3.58002-.80005-10.90997,3.1001-41.78998-.47998-45.38-3.57983-3.57996-11.45996,7.17004-22.20996,17.20001-10.75,10.03003-65.18994,55.88-80.95996,65.19-15.76001,9.32001-68.05005,33.66998-89.55005,40.12-7.94995,2.39001-23.26001,9.48999-41.13989,18.06Z"/>
      </g>
      <g>
        <path class="cls-1" d="M970.04004,863.57001c-4.29004,7.88-68.05005,40.82996-79.52002,53.00995-11.45996,12.18005-17.91016,21.49005-30.80005,20.78003-12.8999-.71997-53.72998,.71002-101.02002,1.42999-47.28003,.72003-194.85986-7.15997-250.73999-7.15997-113.90991,2.14996-203.46997,1.42999-252.8999,3.57996-49.43018,2.15002-83.1001,1.43005-96,1.43005s-19.34009-8.60004-35.1001-22.21002c-15.77002-13.60999-68.06006-51.58002-74.51001-58.03003-6.44995-6.44-7.87988-8.58997,24.36011-20.76996,25.68994-9.71002,113.2998-42.63,165.56982-63.21002,13.30005-5.23999,24.32007-9.67999,31.44019-12.72998,3.3999-1.46002,7.38989-3.17004,11.87988-5.10004,1.17993,2.85004,2.98999,5.62,5.59009,8.23004,5.63989,5.64996,13.61987,8.63,23.05005,8.63,12.26978,0,26.40991-5.19,32.18994-11.80005,5.87988-6.70996,5.70996-16.54999,5.55005-26.07001-.04004-2.64996-.09009-5.18994,.01001-7.40997,9.95996-4.23999,20.17993-8.59003,30.35986-12.90997,6.20996,1.85999,12.14014,3.92999,16.90015,6.08997,7.65991,3.48999,23.04004,8.5,39.31982,13.79999,16.55005,5.40002,37.16016,12.11005,42.07007,15.06,2.28003,1.36005,8.61011,4.48004,17.40015,8.65002-25.3501,10.10999-49.61011,20.67999-59.54004,26.46997-9.03003,5.27002-25.37012,13.49005-39.58008,20.33002-12.8501,6.19-23.94995,11.23004-26.33008,11.91003-5.02002,1.42999,74.51001,10.73999,138.27002,9.31,5.72998,0,78.08008,1.42999,118.91992,1.42999,28.12012,0,15.82007-10.85999,4.03003-18.09003-5.32983-3.27997-10.56982-5.81-11.90991-6.26001-4.30005-1.44-125.37012-55.88995-136.12012-62.32996-10.75-6.45001-66.62988-22.21002-82.38989-29.38-15.76001-7.16003-41.55005-12.89001-53.01001-14.32001-11.46997-1.44-7.06006,17.22998-8.1499,26.77002-1.13013,9.87994,1.69995,24.62994-3.32007,30.35999-5.01001,5.72998-29.18994,14.14996-40.65015,2.69-11.45996-11.47003,2.12012-29.77002,4.12012-36.17999,3.47998-11.17004,7.16016-21.5,8.59009-25.79004,1.43994-4.29999-3.58008-27.22998-12.89014-32.95996-9.30981-5.73004-60.35986-35.10004-66.80981-39.40002-6.44019-4.29999-33.49023-32.96002-41.37012-37.96997-7.87988-5.02002-26.51001-26.51001-32.23999-26.51001s-10.75,8.59998-13.61011,13.60999c-2.86987,5.02002-10.75,25.78998-21.48999,27.94-10.75,2.15002-16.47998-.71002-21.5-4.29999-5.01001-3.58002-9.30981-15.76001-8.58984-22.92004,.70996-7.16998,18.61987-34.38995,20.05981-37.96997,1.43018-3.58002,10.03003-25.78998,7.88013-31.52002-2.15015-5.73999-8.8501-24.95001-12.90015-38.69-7.00977-23.78998-7.13989-77.13,0-87.39996,21.02002-27.23004,17.25,10.64996,23.64014,31.03998,6.31006,20.10999,14.33008,49.91003,20.78003,67.10999,6.44995,17.19,51.57983,38.67999,76.65991,54.44,25.07007,15.76001,96,51.59003,96,51.59003,0,0,346.73999,138.97998,381.13013,155.45996,7.77002,3.72003,23.59985,10.69,43.80981,19.39001,69.34009,29.84003,190.25,80.07001,214.1001,89.5,30.81006,12.17999,13.61011,11.47003,9.31006,19.35004Z"/>
        <path class="cls-1" d="M970.04004,863.57001c-4.29004,7.88-68.05005,40.82996-79.52002,53.00995-11.45996,12.18005-17.91016,21.49005-30.80005,20.78003-12.8999-.71997-53.72998,.71002-101.02002,1.42999-47.28003,.72003-194.85986-7.15997-250.73999-7.15997-113.90991,2.14996-203.46997,1.42999-252.8999,3.57996-49.43018,2.15002-83.1001,1.43005-96,1.43005s-19.34009-8.60004-35.1001-22.21002c-15.77002-13.60999-68.06006-51.58002-74.51001-58.03003-6.44995-6.44-7.87988-8.58997,24.36011-20.76996,25.68994-9.71002,113.2998-42.63,165.56982-63.21002,13.30005-5.23999,24.32007-9.67999,31.44019-12.72998,3.3999-1.46002,7.38989-3.17004,11.87988-5.10004,1.17993,2.85004,2.98999,5.62,5.59009,8.23004,5.63989,5.64996,13.61987,8.63,23.05005,8.63,12.26978,0,26.40991-5.19,32.18994-11.80005,5.87988-6.70996,5.70996-16.54999,5.55005-26.07001-.04004-2.64996-.09009-5.18994,.01001-7.40997,9.95996-4.23999,20.17993-8.59003,30.35986-12.90997,6.20996,1.85999,12.14014,3.92999,16.90015,6.08997,7.65991,3.48999,23.04004,8.5,39.31982,13.79999,16.55005,5.40002,37.16016,12.11005,42.07007,15.06,2.28003,1.36005,8.61011,4.48004,17.40015,8.65002-25.3501,10.10999-49.61011,20.67999-59.54004,26.46997-9.03003,5.27002-25.37012,13.49005-39.58008,20.33002-12.8501,6.19-23.94995,11.23004-26.33008,11.91003-5.02002,1.42999,74.51001,10.73999,138.27002,9.31,5.72998,0,78.08008,1.42999,118.91992,1.42999,28.12012,0,15.82007-10.85999,4.03003-18.09003-5.32983-3.27997-10.56982-5.81-11.90991-6.26001-4.30005-1.44-125.37012-55.88995-136.12012-62.32996-10.75-6.45001-66.62988-22.21002-82.38989-29.38-15.76001-7.16003-41.55005-12.89001-53.01001-14.32001-11.46997-1.44-7.06006,17.22998-8.1499,26.77002-1.13013,9.87994,1.69995,24.62994-3.32007,30.35999-5.01001,5.72998-29.18994,14.14996-40.65015,2.69-11.45996-11.47003,2.12012-29.77002,4.12012-36.17999,3.47998-11.17004,7.16016-21.5,8.59009-25.79004,1.43994-4.29999-3.58008-27.22998-12.89014-32.95996-9.30981-5.73004-60.35986-35.10004-66.80981-39.40002-6.44019-4.29999-33.49023-32.96002-41.37012-37.96997-7.87988-5.02002-26.51001-26.51001-32.23999-26.51001s-10.75,8.59998-13.61011,13.60999c-2.86987,5.02002-10.75,25.78998-21.48999,27.94-10.75,2.15002-16.47998-.71002-21.5-4.29999-5.01001-3.58002-9.30981-15.76001-8.58984-22.92004,.70996-7.16998,18.61987-34.38995,20.05981-37.96997,1.43018-3.58002,10.03003-25.78998,7.88013-31.52002-2.15015-5.73999-8.8501-24.95001-12.90015-38.69-7.00977-23.78998-7.13989-77.13,0-87.39996,21.02002-27.23004,17.25,10.64996,23.64014,31.03998,6.31006,20.10999,14.33008,49.91003,20.78003,67.10999,6.44995,17.19,51.57983,38.67999,76.65991,54.44,25.07007,15.76001,96,51.59003,96,51.59003,0,0,346.73999,138.97998,381.13013,155.45996,7.77002,3.72003,23.59985,10.69,43.80981,19.39001,69.34009,29.84003,190.25,80.07001,214.1001,89.5,30.81006,12.17999,13.61011,11.47003,9.31006,19.35004Z"/>
      </g>
    </g>
    <g>
      <path class="cls-1" d="M511.99865,464.02366c157.52616,2.36898,287.09004-81.58287,297.14728-88.1533s21.49488-4.92782,24.94589-.8213,4.33842,17.97743,1.97201,21.90144-2.36641,10.03816-2.36641,12.8671,2.07061,12.04579,1.97201,19.25502c-.0986,7.20922-3.64821,22.08395-8.47963,26.64675s-20.21307,7.11797-26.03049,.54754c-5.81742-6.57043-7.19783-15.69603-7.88803-21.44516s-1.77481-11.13323-6.40902-8.85183-45.35616,20.89762-48.01837,29.20192c-2.66221,8.3043-2.07061,20.25883-.0986,27.55931,1.97201,7.30048-.5916,28.56313-10.45164,32.21337-9.86004,3.65024-20.90327,3.37647-26.32629-3.7415s-1.74194-29.77988-5.29155-35.37691-57.58261,14.23594-59.55461,18.7379-1.31467,45.26298-5.25869,50.37331-11.17471,13.38421-19.45714,11.80244c-8.28243-1.58177-13.40965-.85172-16.69633-8.51723-3.28668-7.6655-4.20695-17.52115-3.81255-20.56302,.3944-3.04187,.52587-5.23201,.7888-11.19407,.26293-5.96206,.65734-15.33101-7.88803-14.96598-8.54536,.36502-44.17296,1.21675-49.56311,.9734s-9.46563,7.54383-11.17471,9.73397-.65734,16.42608,.13147,20.80637,2.49788,16.33483,2.36641,23.92429c-.13147,7.58945-6.17896,28.27415-12.09498,31.92439-5.91602,3.65024-19.85154,8.39555-28.7913-2.19014s-9.33417-19.7113-9.86004-29.56694,2.36641-16.06106,3.68108-22.26646c1.31467-6.20541,3.54961-22.02312,1.44614-27.01178-2.10347-4.98866-4.56848-6.0229-8.5125-5.84038s-14.79005-.63879-23.26968-2.19014c-8.47963-1.55135-28.5941-4.47154-33.12972-5.11034-4.53562-.63879-5.91602-.91256-8.28243-.91256s-5.62022,5.01908-4.93002,12.59333c.6902,7.57425,2.85941,20.71511,3.25381,30.11448s-4.33842,23.17902-9.86004,27.28554c-5.52162,4.10652-20.70607,10.22067-26.8193,.18251-6.11322-10.03816-5.71882-13.41463-5.91602-21.9927-.1972-8.57806,4.04261-20.44134,4.43702-26.5555,.3944-6.11415,1.87341-20.35009-.6902-26.00796-2.56361-5.65787-34.31292-12.04579-46.53937-14.78347-12.22644-2.73768-13.01525-1.27758-13.21245,3.83275s1.97201,14.23594,1.97201,21.3539-3.15521,23.17902-9.46563,25.9167-17.15646,1.82512-20.90327-3.1027-9.46563-11.68077-9.07123-22.08395,3.35241-14.96598,3.54961-24.2741,.75007-15.33101-3.56898-18.98125c-4.31905-3.65024-31.23695-24.09158-37.94177-25.73419s-10.05724-2.46391-10.84604,2.37266-.493,23.90907-3.74681,27.74182c-3.25381,3.83275-16.36766,9.9469-27.0165,2.46391-10.64884-7.48299-7.78943-21.26265-7.69083-25.27791s5.71882-19.52878,4.93002-25.36917-9.86004-16.42608-9.86004-22.44898,6.40902-13.14086,17.15646-13.59714,13.60685,1.27758,21.19908,5.29285,101.88703,74.86034,295.83524,81.3091Z"/>
      <g id="Eye_Main-2" data-name="Eye_Main">
        <path class="cls-1" d="M930.81871,239.65997c6.17993-4.59998,5.91992-4.98999,13.66992-8.14996,7.76001-3.15002,12.76001-4.07001,19.19995-5.52002,6.44006-1.44,18.67004-2.89001,18.27002-8.15002-.38989-5.26001-5.38989-7.88995-13.92993-8.67999-8.55005-.77997-28.53003-2.35999-37.6001-5.77997-9.07996-3.42004-19.19995-7.23004-20.51001-16.57001-1.31995-9.33002-2.10986-20.64001-4.20996-27.87-2.09998-7.23004-.79004-9.98999-5.91992-9.33002-5.12012,.65997-7.22998,3.28998-8.80005,12.48999-1.58008,9.20001-8.55005,20.77002-22.21997,20.10999-13.67004-.64996-37.34009-14.06-40.63-28.25995-3.28003-14.20001-4.98999-33.39001-6.82996-37.21002-1.84009-3.81-4.87012-7.09998-7.5-6.17999-2.62012,.91998-4.6001,.14001-5.91003,9.59998-1.31995,9.47003-2.63,24.59003-7.2301,29.98004-4.59985,5.38995-25.73999,5.47998-43.48999-3.39001-17.73999-8.87-27.40991-22.89001-28.09985-36.34003-.69006-13.45001-4.43005-21.53998-7.19006-21.83002-2.76001-.29999-8.08997,3.45001-8.88,9.07001s-2.07007,16.86005-5.91003,21c-3.84998,4.14001-12.52991,5.32001-15.88,5.03003-3.34998-.29999-42.5-11.23999-48.02002-21.69-5.52002-10.46002-3.1499-28.89001-5.90991-34.41998-2.76001-5.52002-2.67004-8.77002-6.51001-6.80005-3.8501,1.97003-8.87012,.99005-9.37012,8.48004-.48999,7.48999-1.57983,21.58997-9.2699,28.20001-7.69006,6.60999-14,12.62-42.39001,9.16998-28.40002-3.45001-45.26001-4.92999-47.42993-25.72998-2.17004-20.81006-3.17004-30.26001-9.19006-34.60004-6.01001-4.33002-10.69006-4.94-13.05994,.28003-2.36011,5.22998-2.40015,29.08997-5.46008,38.06-3.04993,8.96997-14.20007,18.04999-22.47998,17.94995-8.28003-.09998-34.44006,3.25-46.67004,3.25s-21.30005-6.43994-23.13989-16.03998c-1.84009-9.59998-2.36011-17.60999-5.78003-22.47998-3.42004-4.85999-7.1001-7.23004-11.18005-4.34003-4.06995,2.90002-7.22998,32.73999-9.45996,38.13-2.24011,5.39001-36.19006,22.08002-54.43005,13.60999-18.23999-8.47998-10.84998-18.25-15.47998-24.94995-4.63-6.71002-7.30005-4.54004-10.34998-2.37-3.05994,2.16998-5.92004,25.33997-6.91003,28.98999-.97998,3.64996-4.13989,11.53998-9.94995,13.81-5.82007,2.26001-35.6001,15.57001-47.13,15.38-11.54004-.20001-13.41003-10.95001-15.19006-16.77002-1.77002-5.81-4.33997-9.15997-8.77002-8.87-4.43994,.29999-9.56995,20.02002-10.45996,27.51001-.88,7.48999-14.97998,21.22998-24.18994,25.31-9.19995,4.07001-10.65002,5.51996-17.88013,5.64996-7.22998,.13-12.34985-4.07001-15.63989-13.92999s-7.1001-15.51996-13.93994-14.59998c-6.83008,.91998-8.28003,1.70996-9.46008,5.13-1.18005,3.41998-1.71008,31.28998-9.72998,39.31-8.02002,8.01996-24.72009,11.89996-36.15002,12.08997-11.43994,.20001-28.59998,2.17004-28.19995,5.92004,.38989,3.75,1.77002,7.29999,10.44995,8.27997,8.67993,.98999,29.17993,9.47003,37.85999,14.98999,8.68005,5.52002,21.40002,15.48004,21.89001,22.87,.48999,7.40002-4.83008,13.51001-9.16992,15.78003-4.34009,2.27002-8.78003,2.76001-14.98999,2.76001s-12.32007-2.85999-20.11011-3.06c-7.79004-.19-21.79004,4.44-22.29004,7.88995-.48999,3.45001,6.12012,7.30005,11.64014,8.88,5.52002,1.57001,27.02002,6.31,31.94995,8.57001,4.92993,2.27002,17.78003,6.64001,27.77002,8.88,9.98999,2.23004,50.21997,4.73004,60.46997,8.94,10.26001,4.21002,135.87,95.38,315.13,95.38,189.90002,0,302.30994-79.87,354.37-102.34998,0,0,15.96997-6.57001,30.69995-5.92004,14.71997,.66003,22.73999,4.47003,33.13013,4.61005,10.37988,.13,15.63989-2.90002,20.23999-3.03003,4.59985-.13,11.17993,3.54999,16.56995,3.16003,5.39001-.40002,10.65002-1.67004,16.03992-4.78003,5.39014-3.10999,10.12012-4.02997,11.17004-7.84003,1.04993-3.81995-1.70996-5.51996-9.72998-8.01996s-23.53003-2.23999-31.68005-5.79004c-8.1499-3.54999-20.51001-12.08997-20.63989-16.69-.13013-4.59998,.12988-7.22998,6.69995-14.59998,6.58008-7.35999,5.13-6.96002,11.31006-11.57001Zm-644.8501,39.17999s-1.31006,64.95001-46.27002,37.86005c-44.95996-27.08002-5-52.58002-5-52.58002,58.64014-36.54999,51.27002-16.57001,51.27002,14.71997Zm84.14001-1.04999c-25.76001,58.10999,5,80.72003-22.34998,80.46002-27.34009-.26001-34.17993-23.40002-34.17993-23.40002-17.09009-36.28998,19.45996-117.79999,57.57983-117.52997,38.13013,.25995,24.72009,2.35999-1.04993,60.46997Zm227.44006,95.71002c-7.1001,12.62-24.97998,8.94-36.81006,2.09998-11.83008-6.83002,5-39.70001,5-52.28998,1.31006-17.32001-12.89001-76.54999-65.46997-73.39001-52.59009,3.15002-71,51.31-68.89001,77.56,2.21008,20.65002,7.69006,45.82001-2.37,48.12s-13.41003,1.84003-22.60999-13.66998c-9.20007-15.51001-24.9801-46.79999,15.25-105.70001,40.22998-58.90002,130.94006-45.75,163.27991-3.15997,32.34009,42.59998,19.72009,107.81,12.62012,120.42999Zm87.35986-27.87c-6.30994,5.32001-22.67993,26.62-35.68994,4.33997-13.02002-22.28998,6.11011-36.08997-17.55005-85.39001-23.66992-49.29999-20.01001-49.62994-15.77991-49.88995,62.31995-3.95001,78.28992,58.56,78.28992,58.56,13.80005,43.58997-2.95996,67.04999-9.27002,72.38Zm66.46008-15.38c-19.13,0-25.01001-21.54999-25.64001-49.70001-.95996-42.96002,19.08008-31.23999,40.22998-20.31,23.07007,12.41998,29.58008,24.65002,29.38013,34.90002-.19006,10.25995-24.84009,35.10999-43.97009,35.10999Zm100.96008-56.21002c-19.05005-8.75-208.77002-98.78998-351.57007-98.78998-82.18994,2.38-261.28003,38.89001-318.12,83.40997-15.80994,12.39001-51.25-8.13-46.73999-38.45001,2.73999-18.37,200.55994-97.02997,367.97998-97.02997s372.71008,86.38,388.68005,94.13c15.97998,7.76001-23.66003,64.33997-40.22998,56.72998Z"/>
        <path class="cls-1" d="M930.81871,239.65997c6.17993-4.59998,5.91992-4.98999,13.66992-8.14996,7.76001-3.15002,12.76001-4.07001,19.19995-5.52002,6.44006-1.44,18.67004-2.89001,18.27002-8.15002-.38989-5.26001-5.38989-7.88995-13.92993-8.67999-8.55005-.77997-28.53003-2.35999-37.6001-5.77997-9.07996-3.42004-19.19995-7.23004-20.51001-16.57001-1.31995-9.33002-2.10986-20.64001-4.20996-27.87-2.09998-7.23004-.79004-9.98999-5.91992-9.33002-5.12012,.65997-7.22998,3.28998-8.80005,12.48999-1.58008,9.20001-8.55005,20.77002-22.21997,20.10999-13.67004-.64996-37.34009-14.06-40.63-28.25995-3.28003-14.20001-4.98999-33.39001-6.82996-37.21002-1.84009-3.81-4.87012-7.09998-7.5-6.17999-2.62012,.91998-4.6001,.14001-5.91003,9.59998-1.31995,9.47003-2.63,24.59003-7.2301,29.98004-4.59985,5.38995-25.73999,5.47998-43.48999-3.39001-17.73999-8.87-27.40991-22.89001-28.09985-36.34003-.69006-13.45001-4.43005-21.53998-7.19006-21.83002-2.76001-.29999-8.08997,3.45001-8.88,9.07001s-2.07007,16.86005-5.91003,21c-3.84998,4.14001-12.52991,5.32001-15.88,5.03003-3.34998-.29999-42.5-11.23999-48.02002-21.69-5.52002-10.46002-3.1499-28.89001-5.90991-34.41998-2.76001-5.52002-2.67004-8.77002-6.51001-6.80005-3.8501,1.97003-8.87012,.99005-9.37012,8.48004-.48999,7.48999-1.57983,21.58997-9.2699,28.20001-7.69006,6.60999-14,12.62-42.39001,9.16998-28.40002-3.45001-45.26001-4.92999-47.42993-25.72998-2.17004-20.81006-3.17004-30.26001-9.19006-34.60004-6.01001-4.33002-10.69006-4.94-13.05994,.28003-2.36011,5.22998-2.40015,29.08997-5.46008,38.06-3.04993,8.96997-14.20007,18.04999-22.47998,17.94995-8.28003-.09998-34.44006,3.25-46.67004,3.25s-21.30005-6.43994-23.13989-16.03998c-1.84009-9.59998-2.36011-17.60999-5.78003-22.47998-3.42004-4.85999-7.1001-7.23004-11.18005-4.34003-4.06995,2.90002-7.22998,32.73999-9.45996,38.13-2.24011,5.39001-36.19006,22.08002-54.43005,13.60999-18.23999-8.47998-10.84998-18.25-15.47998-24.94995-4.63-6.71002-7.30005-4.54004-10.34998-2.37-3.05994,2.16998-5.92004,25.33997-6.91003,28.98999-.97998,3.64996-4.13989,11.53998-9.94995,13.81-5.82007,2.26001-35.6001,15.57001-47.13,15.38-11.54004-.20001-13.41003-10.95001-15.19006-16.77002-1.77002-5.81-4.33997-9.15997-8.77002-8.87-4.43994,.29999-9.56995,20.02002-10.45996,27.51001-.88,7.48999-14.97998,21.22998-24.18994,25.31-9.19995,4.07001-10.65002,5.51996-17.88013,5.64996-7.22998,.13-12.34985-4.07001-15.63989-13.92999s-7.1001-15.51996-13.93994-14.59998c-6.83008,.91998-8.28003,1.70996-9.46008,5.13-1.18005,3.41998-1.71008,31.28998-9.72998,39.31-8.02002,8.01996-24.72009,11.89996-36.15002,12.08997-11.43994,.20001-28.59998,2.17004-28.19995,5.92004,.38989,3.75,1.77002,7.29999,10.44995,8.27997,8.67993,.98999,29.17993,9.47003,37.85999,14.98999,8.68005,5.52002,21.40002,15.48004,21.89001,22.87,.48999,7.40002-4.83008,13.51001-9.16992,15.78003-4.34009,2.27002-8.78003,2.76001-14.98999,2.76001s-12.32007-2.85999-20.11011-3.06c-7.79004-.19-21.79004,4.44-22.29004,7.88995-.48999,3.45001,6.12012,7.30005,11.64014,8.88,5.52002,1.57001,27.02002,6.31,31.94995,8.57001,4.92993,2.27002,17.78003,6.64001,27.77002,8.88,9.98999,2.23004,50.21997,4.73004,60.46997,8.94,10.26001,4.21002,135.87,95.38,315.13,95.38,189.90002,0,302.30994-79.87,354.37-102.34998,0,0,15.96997-6.57001,30.69995-5.92004,14.71997,.66003,22.73999,4.47003,33.13013,4.61005,10.37988,.13,15.63989-2.90002,20.23999-3.03003,4.59985-.13,11.17993,3.54999,16.56995,3.16003,5.39001-.40002,10.65002-1.67004,16.03992-4.78003,5.39014-3.10999,10.12012-4.02997,11.17004-7.84003,1.04993-3.81995-1.70996-5.51996-9.72998-8.01996s-23.53003-2.23999-31.68005-5.79004c-8.1499-3.54999-20.51001-12.08997-20.63989-16.69-.13013-4.59998,.12988-7.22998,6.69995-14.59998,6.58008-7.35999,5.13-6.96002,11.31006-11.57001Zm-644.8501,39.17999s-1.31006,64.95001-46.27002,37.86005c-44.95996-27.08002-5-52.58002-5-52.58002,58.64014-36.54999,51.27002-16.57001,51.27002,14.71997Zm84.14001-1.04999c-25.76001,58.10999,5,80.72003-22.34998,80.46002-27.34009-.26001-34.17993-23.40002-34.17993-23.40002-17.09009-36.28998,19.45996-117.79999,57.57983-117.52997,38.13013,.25995,24.72009,2.35999-1.04993,60.46997Zm227.44006,95.71002c-7.1001,12.62-24.97998,8.94-36.81006,2.09998-11.83008-6.83002,5-39.70001,5-52.28998,1.31006-17.32001-12.89001-76.54999-65.46997-73.39001-52.59009,3.15002-71,51.31-68.89001,77.56,2.21008,20.65002,7.69006,45.82001-2.37,48.12s-13.41003,1.84003-22.60999-13.66998c-9.20007-15.51001-24.9801-46.79999,15.25-105.70001,40.22998-58.90002,130.94006-45.75,163.27991-3.15997,32.34009,42.59998,19.72009,107.81,12.62012,120.42999Zm87.35986-27.87c-6.30994,5.32001-22.67993,26.62-35.68994,4.33997-13.02002-22.28998,6.11011-36.08997-17.55005-85.39001-23.66992-49.29999-20.01001-49.62994-15.77991-49.88995,62.31995-3.95001,78.28992,58.56,78.28992,58.56,13.80005,43.58997-2.95996,67.04999-9.27002,72.38Zm66.46008-15.38c-19.13,0-25.01001-21.54999-25.64001-49.70001-.95996-42.96002,19.08008-31.23999,40.22998-20.31,23.07007,12.41998,29.58008,24.65002,29.38013,34.90002-.19006,10.25995-24.84009,35.10999-43.97009,35.10999Zm100.96008-56.21002c-19.05005-8.75-208.77002-98.78998-351.57007-98.78998-82.18994,2.38-261.28003,38.89001-318.12,83.40997-15.80994,12.39001-51.25-8.13-46.73999-38.45001,2.73999-18.37,200.55994-97.02997,367.97998-97.02997s372.71008,86.38,388.68005,94.13c15.97998,7.76001-23.66003,64.33997-40.22998,56.72998Z"/>
      </g>
    </g>
  </g>
</svg>