<?xml version="1.0" encoding="UTF-8"?>
<svg xmlns="http://www.w3.org/2000/svg" viewBox="0 0 32 32">
  <defs>
    <style>
      .cls-1 {
        fill: #fff;
      }

      .cls-2 {
        fill: #e1ddd2;
      }
    </style>
  </defs>
  <g id="Game_Dump" data-name="Game Dump">
    <path d="M13.2,5.8H4.8c-1.54,0-2.8,1.26-2.8,2.8V25.4c0,1.54,1.26,2.8,2.8,2.8H27.2c1.54,0,2.8-1.26,2.8-2.8V11.4c0-1.54-1.26-2.8-2.8-2.8h-11.2l-2.8-2.8Z"/>
  </g>
  <g id="Projects">
    <g>
      <g>
        <path class="cls-2" d="M19.85623,12l-4.3109,6.51278h8.59617l-4.28527-6.51278Z"/>
        <path class="cls-2" d="M11.26115,25l4.28527-6.48722,4.3109,6.48722H11.26115Z"/>
        <path class="cls-2" d="M19.85652,25h8.62181l-4.33654-6.48722-4.28527,6.48722Z"/>
      </g>
      <g>
        <path class="cls-1" d="M19.85623,12l-4.3109,6.51278h8.59617l-4.28527-6.51278Z"/>
        <path class="cls-1" d="M11.26115,25l4.28527-6.48722,4.3109,6.48722H11.26115Z"/>
        <path class="cls-1" d="M19.85652,25h8.62181l-4.33654-6.48722-4.28527,6.48722Z"/>
      </g>
    </g>
    <g id="Layer_4" data-name="Layer 4">
      <g>
        <path class="cls-1" d="M10.07422,24.5c-.49414,0-.91113-.38574-.94922-.87793l-.21289-1.46484-1.01758-.4209-1.20117,.89551c-.14551,.12598-.36523,.20703-.59277,.20703-.25391,0-.49316-.09863-.67285-.27832l-.7627-.76172c-.34863-.35059-.37012-.91797-.0498-1.29199l.87402-1.17676-.42188-1.0166-1.49609-.21582c-.45996-.03516-.84473-.45215-.84473-.94629v-1.07715c0-.49365,.38477-.91064,.87695-.94971l1.46484-.21436,.42188-1.01562-.89648-1.20166c-.2998-.34961-.27734-.91699,.07129-1.26562l.7627-.76221c.17969-.17969,.41895-.27881,.67383-.27881,.22656,0,.44629,.08154,.61816,.229l1.19238,.88574,1.00098-.43115,.21582-1.49805c.03516-.45996,.45215-.8457,.94531-.8457h1.07812c.49316,0,.91016,.38574,.94824,.87842l.21484,1.46387,1.01562,.42139,1.20215-.896c.14551-.12598,.36523-.20752,.5918-.20752,.25488,0,.49414,.09912,.67383,.2793l.76172,.76172c.34766,.34766,.37109,.91504,.05273,1.29053l-.87598,1.17822,.42188,1.01611,1.49609,.21631c.45898,.03516,.84473,.45215,.84473,.9458v1.07715c0,.49414-.38574,.91113-.87793,.94922l-1.46387,.21387-.4209,1.0166,.89551,1.20215c.29785,.34863,.27637,.91504-.07129,1.26465l-.7627,.7627c-.17969,.17969-.41895,.27832-.67285,.27832-.22754,0-.44727-.08105-.61914-.22852l-1.19141-.88574-1.00195,.43164-.21582,1.49805c-.03516,.45996-.45215,.8457-.94531,.8457h-1.07812Zm.53906-9.8916c-.53613,0-1.03906,.2085-1.41797,.58691s-.58691,.88184-.58691,1.41748c0,.53467,.20898,1.03857,.58691,1.41748,.37891,.37793,.88281,.58691,1.41797,.58691s1.03906-.20898,1.41797-.58691c.37793-.37891,.58691-.88281,.58691-1.41748,0-.53516-.20898-1.03857-.58691-1.41748-.37891-.37842-.88184-.58691-1.41797-.58691Z"/>
        <path d="M11.15212,9.22606c.23603,0,.43234,.18159,.45049,.41727l.23416,1.6097c.00736,.10047,.07111,.18817,.16422,.22641l1.26038,.52238c.03307,.01371,.06786,.02042,.10239,.02042,.06274,0,.12468-.02211,.17426-.06451l1.29368-.96286c.08465-.07259,.18912-.1085,.29341-.1085,.11611,0,.23201,.0445,.32014,.13245l.76194,.76195c.16691,.16691,.17696,.43429,.02399,.61358l-.9629,1.29438c-.06531,.07613-.08272,.18315-.0437,.27591l.52203,1.25965c.03785,.0935,.12594,.15686,.22602,.165l1.61082,.23377c.23494,.01858,.41653,.21485,.41653,.45092v1.07762c0,.23568-.18163,.43278-.41653,.45053l-1.61082,.23378c-.10008,.00814-.18817,.07184-.22602,.165l-.52203,1.25964c-.03902,.0935-.02164,.20052,.0437,.27665l.9629,1.29442c.153,.17929,.14296,.44585-.02399,.61358l-.76194,.76195c-.08804,.08783-.2038,.13223-.31977,.13223-.10444,0-.20904-.03598-.29379-.10867l-1.29368-.96329c-.04951-.04178-.11136-.06387-.174-.06387-.03462,0-.06949,.00675-.10265,.02065l-1.26038,.5216c-.09315,.03906-.15686,.12637-.16465,.22719l-.23378,1.6097c-.01854,.23529-.21446,.41731-.45049,.41731h-1.07805c-.23607,0-.43195-.18202-.45049-.41731l-.23338-1.6097c-.00814-.10082-.07185-.18813-.165-.22719l-1.26038-.5216c-.03302-.0139-.0679-.02065-.10255-.02065-.06271,0-.12469,.02209-.17371,.06387l-1.29407,.96329c-.08474,.07267-.18946,.10867-.2939,.10867-.11601,0-.23167-.04439-.3193-.13223l-.76229-.76195c-.16734-.16773-.177-.43429-.024-.61358l.9633-1.29442c.06491-.07613,.08228-.18315,.0433-.27665l-.52203-1.25964c-.03863-.09316-.12555-.15686-.22641-.165l-1.61009-.23378c-.23533-.01775-.41692-.21485-.41692-.45053v-1.07762c.00004-.23611,.18164-.43238,.41697-.45096l1.61009-.23417c.10086-.0077,.18778-.07111,.22641-.16456l.52203-1.25965c.03902-.09311,.02278-.19978-.04331-.27626l-.96329-1.29403c-.15301-.17933-.14296-.44667,.02399-.61358l.7623-.76195c.08778-.08797,.20371-.13258,.31989-.13259,.10426,0,.20871,.0359,.2933,.10864l1.29442,.96286c.0491,.0424,.11121,.06451,.174,.06451,.03458,0,.06936-.0067,.1023-.02042l1.25999-.52238c.09316-.03824,.15686-.12672,.16501-.22641l.23338-1.6097c.01853-.23568,.2148-.41727,.45048-.41727h1.07806m-.53896,9.89114c.66884,0,1.29828-.26045,1.7712-.73302,.47291-.4737,.73375-1.10235,.73375-1.77158,0-.66885-.2608-1.29789-.73375-1.77085-.47292-.47374-1.10236-.73337-1.7712-.73337-.66928,0-1.29789,.25963-1.77119,.73337-.47292,.47292-.73337,1.102-.73337,1.77085,0,.66923,.2604,1.29788,.73337,1.77158,.47335,.47257,1.10196,.73302,1.77119,.73302m.53896-10.89114h-1.07806c-.7385,0-1.36451,.56633-1.44348,1.29692l-.17284,1.1921-.49052,.20336-.95569-.7109c-.25728-.20752-.57877-.32131-.91035-.32131-.38855,.00003-.75352,.15141-1.02776,.42625l-.76137,.76102c-.52203,.5219-.56487,1.36436-.10522,1.93676l.71164,.95598-.20321,.49032-1.19291,.1735c-.73012,.07918-1.29613,.70531-1.29626,1.44375v1.07779c0,.74026,.5665,1.36599,1.2977,1.4437l1.19127,.17297,.20349,.49101-.71178,.95645c-.45904,.57167-.4166,1.41369,.10426,1.93575l.76327,.76293c.27303,.27369,.63785,.42497,1.02625,.42497,.33167,0,.65336-.11378,.91084-.32128l.95509-.71096,.49113,.20326,.17291,1.1926c.07896,.73065,.70504,1.297,1.4435,1.297h1.07805c.73837,0,1.36438-.56619,1.44347-1.29671l.17326-1.19301,.49106-.20321,.95494,.71106c.25746,.20747,.57911,.32125,.91068,.32125,.38742,0,.75182-.15069,1.02607-.42432l.76275-.76276c.52139-.52379,.56353-1.36539,.10519-1.93644l-.71179-.95685,.20339-.49077,1.19164-.17294c.73097-.07773,1.29728-.70348,1.29728-1.4437v-1.07762c0-.73857-.56595-1.36485-1.29607-1.44391l-1.19286-.17311-.20317-.49029,.7114-.9563c.45963-.57234,.41687-1.41485-.10499-1.93671l-.76194-.76194c-.27511-.27455-.63967-.42535-1.02725-.42535-.33142,0-.65289,.11369-.91022,.321l-.95548,.71115-.49034-.20323-.17338-1.19186c-.07841-.73093-.70424-1.29737-1.44357-1.29737h0Zm-.53896,9.89114c-.4019,0-.78-.15651-1.06467-.44071-.28327-.28371-.4399-.66194-.43989-1.06388,0-.40193,.15643-.77971,.44048-1.06375,.2839-.28417,.66168-.44048,1.06408-.44048,.40264,0,.78032,.15621,1.06348,.43986,.2849,.28491,.44147,.66269,.44147,1.06436s-.15678,.77992-.44145,1.06506c-.28334,.28314-.66134,.43954-1.0635,.43954h0Z"/>
      </g>
    </g>
  </g>
</svg>