<?xml version="1.0" encoding="UTF-8"?>
<svg id="Projects" xmlns="http://www.w3.org/2000/svg" viewBox="0 0 32 32">
  <path d="M27.20001,8.59998h-11.20001l-2.79999-2.79999H4.79999c-1.53998,0-2.79999,1.26001-2.79999,2.79999V25.39996c0,1.54004,1.26001,2.80005,2.79999,2.80005H27.20001c1.53998,0,2.79999-1.26001,2.79999-2.80005V11.39996c0-1.53998-1.26001-2.79999-2.79999-2.79999ZM10.07001,24c-.22998,0-.42999-.17999-.45001-.42004l-.22998-1.60999c-.01001-.09998-.07001-.19-.16003-.21997l-1.26996-.53003c-.09003-.02997-.20001-.01996-.27002,.04999l-1.29999,.96002c-.17004,.15002-.44,.14001-.60999-.02002l-.76001-.75995c-.17004-.17004-.17999-.44-.03003-.62006l.97003-1.28998c.06-.08002,.07996-.19,.03998-.27997l-.52002-1.26001c-.03998-.09003-.13-.16003-.22998-.16003l-1.60999-.23999c-.23004-.02002-.41003-.20996-.41003-.45001v-1.07996c0-.23004,.17999-.42999,.41003-.45001l1.60999-.22998c.09998-.01001,.19-.07001,.22998-.17004l.52002-1.26001c.03998-.08997,.02002-.19995-.03998-.26996l-.97003-1.29999c-.14996-.17004-.14001-.44,.03003-.61005l.76001-.76001c.16998-.16998,.43994-.17999,.60999-.02997l1.29999,.96997c.08002,.06,.17999,.08002,.27997,.04004l1.26001-.52002c.09003-.03998,.15002-.13,.16003-.22998l.22998-1.60999c.02002-.23004,.22003-.41003,.45001-.41003h1.08002c.23999,0,.42999,.17999,.44995,.41003l.24005,1.60999c0,.09998,.06995,.19,.15997,.22998l1.26001,.52002c.08997,.03998,.20001,.01996,.27997-.04004l1.29004-.96997c.17999-.15002,.45001-.14001,.62,.02997l.76001,.76001c.15997,.17004,.16998,.44,.01996,.61005l-.95996,1.29999c-.07001,.07001-.08002,.17999-.05005,.26996l.53003,1.26001c.03003,.10004,.12,.16003,.21997,.17004l1.61005,.22998c.23999,.02002,.41998,.21997,.41998,.45001v1.07996c0,.24005-.17999,.42999-.41998,.45001l-1.61005,.23999c-.09998,0-.18994,.07001-.21997,.16003l-.53003,1.26001c-.02997,.08997-.01996,.19995,.05005,.27997l.95996,1.28998c.15002,.18005,.14001,.45001-.01996,.62006l-.76001,.75995c-.16998,.16003-.44,.17004-.62,.02002l-1.29004-.96002c-.07996-.06995-.19-.07996-.27997-.04999l-1.26001,.53003c-.09003,.02997-.15997,.12-.15997,.21997l-.24005,1.60999c-.01996,.24005-.20996,.42004-.44995,.42004h-1.08002Zm1.19,1l.01001-.01001c.69995-.04999,1.26996-.62,1.32001-1.26001l.13995-.96002,.23004-.33997,.29999-.12,.91998,.67999c.26001,.21997,.60004,.34998,.95001,.34998,.38,0,.75-.14996,1.02002-.42999l.76996-.76001c.26001-.25995,.40002-.60999,.41003-.95996l2.52997,3.81,4.28003-6.48999h-6.10999c.56995-.19,.96997-.74005,.96997-1.36005v-1.07996c0-.63-.40997-1.17004-.94-1.36005l1.79999-2.70996,4.28003,6.51001,4.33997,6.48999H11.26001Z"/>
  <path d="M13.12,16.60999c0,.66998-.26001,1.29999-.73999,1.77002-.47003,.47998-1.09998,.73999-1.77002,.73999-.66998,0-1.28998-.26001-1.76996-.73999-.47003-.47003-.73004-1.10004-.73004-1.77002s.26001-1.29999,.73004-1.77002c.47998-.46997,1.09998-.72998,1.76996-.72998,.67004,0,1.29999,.26001,1.77002,.72998,.47998,.47003,.73999,1.10004,.73999,1.77002Z"/>
</svg>