<?xml version="1.0" encoding="UTF-8"?>
<svg id="Armatures" xmlns="http://www.w3.org/2000/svg" viewBox="0 0 32 32">
  <defs>
    <style>
      .cls-1 {
        fill: none;
        stroke: #d8935b;
        stroke-width: 2px;
      }

      .cls-2 {
        fill: #f4d3b3;
      }
    </style>
  </defs>
  <g id="Bone-2" data-name="Bone">
    <path class="cls-1" d="M13.47998,11.47998c0,.61646-.49987,1.12462-1.12467,1.12462-.35821,0-.67478-.16657-.86637-.43316l-.99969,1.40788-5.3233-1.69949c-.15828,.42487-.56648,.72476-1.04133,.72476-.6248,0-1.12462-.50816-1.12462-1.12462s.49982-1.12462,1.12462-1.12462c.47485,0,.88305,.29989,1.04133,.72476l5.3233-1.69949,.99969,1.40788c.19159-.26659,.50816-.43316,.86637-.43316,.6248,0,1.12467,.50816,1.12467,1.12462Z"/>
    <path class="cls-2" d="M13.47998,11.47998c0,.61646-.49987,1.12462-1.12467,1.12462-.35821,0-.67478-.16657-.86637-.43316l-.99969,1.40788-5.3233-1.69949c-.15828,.42487-.56648,.72476-1.04133,.72476-.6248,0-1.12462-.50816-1.12462-1.12462s.49982-1.12462,1.12462-1.12462c.47485,0,.88305,.29989,1.04133,.72476l5.3233-1.69949,.99969,1.40788c.19159-.26659,.50816-.43316,.86637-.43316,.6248,0,1.12467,.50816,1.12467,1.12462Z"/>
  </g>
  <g>
    <g>
      <g id="Bone-3" data-name="Bone">
        <path class="cls-1" d="M16.22998,19.31l.90002,1.84998-4.84998,4.62c.35999,.41003,.43994,1.02002,.15997,1.52002-.35999,.65002-1.17999,.89001-1.83002,.52997-.64996-.34998-.89001-1.16998-.53998-1.82996,.27997-.51001,.83997-.77002,1.38-.67999l1.26001-6.58002,2.04999-.25c-.16003-.35999-.15002-.78998,.06-1.16003,.34998-.64996,1.16998-.88995,1.83002-.52997,.64996,.34998,.88995,1.16998,.52997,1.83002-.20001,.37-.56,.60999-.95001,.67999Z"/>
      </g>
      <g id="Bone-4" data-name="Bone">
        <path class="cls-1" d="M21.39001,27.82996c-.65002,.36005-1.47003,.12006-1.83002-.52997-.27997-.5-.20001-1.10999,.15997-1.52002l-4.84998-4.62,.90002-1.84998c-.39001-.07001-.75-.31-.95001-.67999-.35999-.66003-.12-1.48004,.52997-1.83002,.66003-.35999,1.48004-.12,1.83002,.52997,.21002,.37006,.22003,.80005,.06,1.16003l2.04999,.25,1.26001,6.58002c.54004-.09003,1.10004,.16998,1.38,.67999,.35004,.65997,.10999,1.47998-.53998,1.82996Z"/>
      </g>
    </g>
    <g>
      <g id="Bone-5" data-name="Bone">
        <path class="cls-2" d="M16.22998,19.31l.90002,1.84998-4.84998,4.62c.35999,.41003,.43994,1.02002,.15997,1.52002-.35999,.65002-1.17999,.89001-1.83002,.52997-.64996-.34998-.89001-1.16998-.53998-1.82996,.27997-.51001,.83997-.77002,1.38-.67999l1.26001-6.58002,2.04999-.25c-.16003-.35999-.15002-.78998,.06-1.16003,.34998-.64996,1.16998-.88995,1.83002-.52997,.64996,.34998,.88995,1.16998,.52997,1.83002-.20001,.37-.56,.60999-.95001,.67999Z"/>
      </g>
      <g id="Bone-6" data-name="Bone">
        <path class="cls-2" d="M21.39001,27.82996c-.65002,.36005-1.47003,.12006-1.83002-.52997-.27997-.5-.20001-1.10999,.15997-1.52002l-4.84998-4.62,.90002-1.84998c-.39001-.07001-.75-.31-.95001-.67999-.35999-.66003-.12-1.48004,.52997-1.83002,.66003-.35999,1.48004-.12,1.83002,.52997,.21002,.37006,.22003,.80005,.06,1.16003l2.04999,.25,1.26001,6.58002c.54004-.09003,1.10004,.16998,1.38,.67999,.35004,.65997,.10999,1.47998-.53998,1.82996Z"/>
      </g>
    </g>
  </g>
  <g id="Bone-7" data-name="Bone">
    <path class="cls-1" d="M29,11.47998c0,.61646-.49982,1.12462-1.12462,1.12462-.47485,0-.88305-.29989-1.04133-.72476l-5.3233,1.69949-.99969-1.40788c-.19159,.26659-.50816,.43316-.86637,.43316-.6248,0-1.12467-.50816-1.12467-1.12462s.49987-1.12462,1.12467-1.12462c.35821,0,.67478,.16657,.86637,.43316l.99969-1.40788,5.3233,1.69949c.15828-.42487,.56648-.72476,1.04133-.72476,.6248,0,1.12462,.50816,1.12462,1.12462Z"/>
    <path class="cls-2" d="M29,11.47998c0,.61646-.49982,1.12462-1.12462,1.12462-.47485,0-.88305-.29989-1.04133-.72476l-5.3233,1.69949-.99969-1.40788c-.19159,.26659-.50816,.43316-.86637,.43316-.6248,0-1.12467-.50816-1.12467-1.12462s.49987-1.12462,1.12467-1.12462c.35821,0,.67478,.16657,.86637,.43316l.99969-1.40788,5.3233,1.69949c.15828-.42487,.56648-.72476,1.04133-.72476,.6248,0,1.12462,.50816,1.12462,1.12462Z"/>
  </g>
  <g id="Bone-8" data-name="Bone">
    <path class="cls-1" d="M17.34998,17.97998c0,.73999-.60999,1.34998-1.34998,1.34998s-1.34998-.60999-1.34998-1.34998c0-.46002,.22998-.85999,.57996-1.09998l-1.75-1.47003,2.19-8.01996c-.57996-.14001-1.01996-.67004-1.01996-1.30005,0-.73999,.60999-1.34998,1.34998-1.34998s1.34998,.60999,1.34998,1.34998c0,.63-.44,1.16003-1.01996,1.30005l2.19,8.01996-1.75,1.47003c.34998,.23999,.57996,.63995,.57996,1.09998Z"/>
    <path class="cls-2" d="M17.34998,17.97998c0,.73999-.60999,1.34998-1.34998,1.34998s-1.34998-.60999-1.34998-1.34998c0-.46002,.22998-.85999,.57996-1.09998l-1.75-1.47003,2.19-8.01996c-.57996-.14001-1.01996-.67004-1.01996-1.30005,0-.73999,.60999-1.34998,1.34998-1.34998s1.34998,.60999,1.34998,1.34998c0,.63-.44,1.16003-1.01996,1.30005l2.19,8.01996-1.75,1.47003c.34998,.23999,.57996,.63995,.57996,1.09998Z"/>
  </g>
</svg>