<?xml version="1.0" encoding="UTF-8"?>
<svg xmlns="http://www.w3.org/2000/svg" xmlns:xlink="http://www.w3.org/1999/xlink" viewBox="0 0 32 32">
  <defs>
    <style>
      .cls-1 {
        isolation: isolate;
      }

      .cls-2 {
        fill: #f4e5d7;
      }

      .cls-3 {
        mix-blend-mode: multiply;
        opacity: .8;
      }

      .cls-4 {
        mix-blend-mode: color;
      }

      .cls-5 {
        fill: #eaac7d;
      }

      .cls-6 {
        fill: #f4d3b3;
      }

      .cls-7 {
        fill: url(#linear-gradient);
      }

      .cls-8 {
        fill: #d8935b;
      }
    </style>
    <linearGradient id="linear-gradient" x1="5.27513" y1="7.00076" x2="26.72487" y2="24.99924" gradientUnits="userSpaceOnUse">
      <stop offset="0" stop-color="#e83e39"/>
      <stop offset=".25" stop-color="#fdc60b"/>
      <stop offset=".28263" stop-color="#f0c510"/>
      <stop offset=".34199" stop-color="#d0c31f"/>
      <stop offset=".421" stop-color="#9bbf37"/>
      <stop offset=".5" stop-color="#61bc52"/>
      <stop offset=".75" stop-color="#2cb9ec"/>
      <stop offset=".79881" stop-color="#439ad7"/>
      <stop offset=".89163" stop-color="#6c66b4"/>
      <stop offset=".96156" stop-color="#86469e"/>
      <stop offset="1" stop-color="#903a96"/>
    </linearGradient>
  </defs>
  <g class="cls-1">
    <g id="Gay_Material" data-name="Gay Material">
      <g>
        <g>
          <circle class="cls-6" cx="16" cy="16" r="13.25"/>
          <path class="cls-8" d="M16,3.5c6.89252,0,12.5,5.60748,12.5,12.5s-5.60748,12.5-12.5,12.5S3.5,22.89252,3.5,16,9.10748,3.5,16,3.5m0-1.5c-7.73199,0-14,6.26801-14,14s6.26801,14,14,14,14-6.26801,14-14S23.73199,2,16,2h0Z"/>
        </g>
        <g id="Highlight">
          <path class="cls-2" d="M20.11525,7.95972c.51837,1.52769-.27482,3.02826-.4725,3.37694-2.3833,4.20389-11.14381,4.9085-12.90374,2.02532-1.25643-2.05832,.65992-6.59259,4.16699-8.1656,3.53499-1.58553,8.2785,.02033,9.20924,2.76334Z"/>
        </g>
        <g id="Shadow">
          <path class="cls-5" d="M24.44299,25.7543c5.5362-4.87487,4.84856-13.555,3.91615-13.8059-.56623-.15236-.86161,2.90091-3.5181,6.12342-5.96965,7.24162-16.38416,6.26593-16.35989,8.31066,.01603,1.35029,4.56847,2.6817,8.30171,2.4484,1.26024-.07876,4.70954-.47846,7.66013-3.07658Z"/>
        </g>
        <path class="cls-8" d="M16,3.5c6.89252,0,12.5,5.60748,12.5,12.5s-5.60748,12.5-12.5,12.5S3.5,22.89252,3.5,16,9.10748,3.5,16,3.5m0-1.5c-7.73199,0-14,6.26801-14,14s6.26801,14,14,14,14-6.26801,14-14S23.73199,2,16,2h0Z"/>
      </g>
      <g class="cls-4">
        <g>
          <circle class="cls-7" cx="16" cy="16" r="13.25"/>
          <path class="cls-7" d="M16,3.5c6.89252,0,12.5,5.60748,12.5,12.5s-5.60748,12.5-12.5,12.5S3.5,22.89252,3.5,16,9.10748,3.5,16,3.5m0-1.5c-7.73199,0-14,6.26801-14,14s6.26801,14,14,14,14-6.26801,14-14S23.73199,2,16,2h0Z"/>
        </g>
        <g id="Highlight-2" data-name="Highlight">
          <path class="cls-7" d="M20.11525,7.95972c.51837,1.52769-.27482,3.02826-.4725,3.37694-2.3833,4.20389-11.14381,4.9085-12.90374,2.02532-1.25643-2.05832,.65992-6.59259,4.16699-8.1656,3.53499-1.58553,8.2785,.02033,9.20924,2.76334Z"/>
        </g>
        <g id="Shadow-2" data-name="Shadow">
          <path class="cls-7" d="M24.44299,25.7543c5.5362-4.87487,4.84856-13.555,3.91615-13.8059-.56623-.15236-.86161,2.90091-3.5181,6.12342-5.96965,7.24162-16.38416,6.26593-16.35989,8.31066,.01603,1.35029,4.56847,2.6817,8.30171,2.4484,1.26024-.07876,4.70954-.47846,7.66013-3.07658Z"/>
        </g>
        <path class="cls-7" d="M16,3.5c6.89252,0,12.5,5.60748,12.5,12.5s-5.60748,12.5-12.5,12.5S3.5,22.89252,3.5,16,9.10748,3.5,16,3.5m0-1.5c-7.73199,0-14,6.26801-14,14s6.26801,14,14,14,14-6.26801,14-14S23.73199,2,16,2h0Z"/>
      </g>
      <g class="cls-3">
        <g>
          <circle class="cls-7" cx="16" cy="16" r="13.25"/>
          <path class="cls-7" d="M16,3.5c6.89252,0,12.5,5.60748,12.5,12.5s-5.60748,12.5-12.5,12.5S3.5,22.89252,3.5,16,9.10748,3.5,16,3.5m0-1.5c-7.73199,0-14,6.26801-14,14s6.26801,14,14,14,14-6.26801,14-14S23.73199,2,16,2h0Z"/>
        </g>
        <g id="Highlight-3" data-name="Highlight">
          <path class="cls-7" d="M20.11525,7.95972c.51837,1.52769-.27482,3.02826-.4725,3.37694-2.3833,4.20389-11.14381,4.9085-12.90374,2.02532-1.25643-2.05832,.65992-6.59259,4.16699-8.1656,3.53499-1.58553,8.2785,.02033,9.20924,2.76334Z"/>
        </g>
        <g id="Shadow-3" data-name="Shadow">
          <path class="cls-7" d="M24.44299,25.7543c5.5362-4.87487,4.84856-13.555,3.91615-13.8059-.56623-.15236-.86161,2.90091-3.5181,6.12342-5.96965,7.24162-16.38416,6.26593-16.35989,8.31066,.01603,1.35029,4.56847,2.6817,8.30171,2.4484,1.26024-.07876,4.70954-.47846,7.66013-3.07658Z"/>
        </g>
        <path class="cls-7" d="M16,3.5c6.89252,0,12.5,5.60748,12.5,12.5s-5.60748,12.5-12.5,12.5S3.5,22.89252,3.5,16,9.10748,3.5,16,3.5m0-1.5c-7.73199,0-14,6.26801-14,14s6.26801,14,14,14,14-6.26801,14-14S23.73199,2,16,2h0Z"/>
      </g>
    </g>
  </g>
</svg>