<?xml version="1.0" encoding="UTF-8"?>
<svg id="bfmat" xmlns="http://www.w3.org/2000/svg" viewBox="0 0 32 32">
  <defs>
    <style>
      .cls-1 {
        fill: #f4e5d7;
      }

      .cls-2 {
        fill: #eaac7d;
      }

      .cls-3 {
        fill: #f4d3b3;
      }

      .cls-4 {
        fill: #d8935b;
      }
    </style>
  </defs>
  <g>
    <circle class="cls-3" cx="16" cy="16" r="13.25"/>
    <path class="cls-4" d="M16.00018,3.5c6.89252,0,12.5,5.60748,12.5,12.5s-5.60748,12.5-12.5,12.5S3.50018,22.89252,3.50018,16,9.10767,3.5,16.00018,3.5m0-1.5c-7.73199,0-14,6.26801-14,14s6.26801,14,14,14,14-6.26801,14-14S23.73217,2,16.00018,2h0Z"/>
  </g>
  <g id="Highlight">
    <path class="cls-1" d="M20.11543,7.95972c.51837,1.52769-.27482,3.02826-.4725,3.37694-2.3833,4.20389-11.14381,4.9085-12.90374,2.02532-1.25643-2.05832,.65992-6.59259,4.16699-8.1656,3.53499-1.58553,8.2785,.02033,9.20924,2.76334Z"/>
  </g>
  <g id="Shadow">
    <path class="cls-2" d="M24.44317,25.7543c5.5362-4.87487,4.84856-13.555,3.91615-13.8059-.56623-.15236-.86161,2.90091-3.5181,6.12342-5.96965,7.24162-16.38416,6.26593-16.35989,8.31066,.01603,1.35029,4.56847,2.6817,8.30171,2.4484,1.26024-.07876,4.70954-.47846,7.66013-3.07658Z"/>
  </g>
  <g id="Outline">
    <path class="cls-4" d="M16.00018,3.5c6.89252,0,12.5,5.60748,12.5,12.5s-5.60748,12.5-12.5,12.5S3.50018,22.89252,3.50018,16,9.10767,3.5,16.00018,3.5m0-1.5c-7.73199,0-14,6.26801-14,14s6.26801,14,14,14,14-6.26801,14-14S23.73217,2,16.00018,2h0Z"/>
  </g>
</svg>