<?xml version="1.0" encoding="UTF-8"?>
<svg id="Bone" xmlns="http://www.w3.org/2000/svg" viewBox="0 0 32 32">
  <defs>
    <style>
      .cls-1 {
        fill: #f4d3b3;
      }

      .cls-2 {
        fill: #d8935b;
      }
    </style>
  </defs>
  <circle class="cls-1" cx="16" cy="5" r="3"/>
  <circle class="cls-1" cx="16" cy="27" r="3"/>
  <polygon class="cls-1" points="16 4.5 21.6087 22 16 26 10.3913 22 16 4.5"/>
  <g>
    <path class="cls-1" d="M16,30.5c-1.92969,0-3.5-1.57031-3.5-3.5,0-.8457,.30176-1.64844,.84277-2.2793l-3.54102-2.52539,4.52637-14.12305c-1.12402-.59766-1.82812-1.75781-1.82812-3.07227,0-1.92969,1.57031-3.5,3.5-3.5s3.5,1.57031,3.5,3.5c0,1.31445-.7041,2.47461-1.82812,3.07227l4.52637,14.12305-3.54102,2.52539c.54102,.63086,.84277,1.43359,.84277,2.2793,0,1.92969-1.57031,3.5-3.5,3.5Z"/>
    <path class="cls-2" d="M16,2c1.65997,0,3,1.33997,3,3,0,1.28998-.79999,2.38-1.94,2.79999l4.55,14.20001-3.73,2.65997c.68,.54999,1.12,1.39001,1.12,2.34003,0,1.65997-1.34003,3-3,3s-3-1.34003-3-3c0-.95001,.44-1.79004,1.12-2.34003l-3.72999-2.65997L14.94,7.79999c-1.14001-.41999-1.94-1.51001-1.94-2.79999,0-1.66003,1.34003-3,3-3m0-1c-2.20561,0-4,1.79439-4,4,0,1.33298,.66872,2.562,1.73219,3.29225l-4.29449,13.40261-.22281,.69536,.5945,.42396,2.82804,2.01676c-.4126,.63888-.63743,1.38772-.63743,2.16906,0,2.20561,1.79439,4,4,4s4-1.79439,4-4c0-.78134-.22483-1.53018-.63743-2.16906l2.82804-2.01676,.5945-.42396-.22281-.69536-4.29449-13.40261c1.06347-.73025,1.73219-1.95927,1.73219-3.29225,0-2.20561-1.79439-4-4-4h0Z"/>
  </g>
</svg>