<?xml version="1.0" encoding="UTF-8"?>
<svg id="Projects" xmlns="http://www.w3.org/2000/svg" viewBox="0 0 32 32">
  <defs>
    <style>
      .cls-1 {
        fill: #fff;
      }

      .cls-2 {
        fill: #e1ddd2;
      }
    </style>
  </defs>
  <path d="M13.2,4.8H4.8c-1.54,0-2.8,1.26-2.8,2.8V24.4c0,1.54,1.26,2.8,2.8,2.8H27.2c1.54,0,2.8-1.26,2.8-2.8V10.4c0-1.54-1.26-2.8-2.8-2.8h-11.2l-2.8-2.8Z"/>
  <g>
    <g>
      <path class="cls-2" d="M15.99572,10l-4.64251,7.01376h9.25741l-4.6149-7.01376Z"/>
      <path class="cls-2" d="M6.73949,24l4.6149-6.98624,4.64251,6.98624H6.73949Z"/>
      <path class="cls-2" d="M15.99604,24h9.28502l-4.67012-6.98624-4.6149,6.98624Z"/>
    </g>
    <g>
      <path class="cls-1" d="M15.99572,10l-4.64251,7.01376h9.25741l-4.6149-7.01376Z"/>
      <path class="cls-1" d="M6.73949,24l4.6149-6.98624,4.64251,6.98624H6.73949Z"/>
      <path class="cls-1" d="M15.99604,24h9.28502l-4.67012-6.98624-4.6149,6.98624Z"/>
    </g>
  </g>
</svg>