<?xml version="1.0" encoding="UTF-8"?>
<svg id="Fonts" xmlns="http://www.w3.org/2000/svg" viewBox="0 0 32 32">
  <defs>
    <style>
      .cls-1 {
        font-family: ZeldaGlyphsv2-Deco, 'Zelda Glyphs v2';
        font-size: 25px;
      }

      .cls-1, .cls-2 {
        fill: #c1c1c1;
      }

      .cls-3 {
        fill: #636363;
      }
    </style>
  </defs>
  <path class="cls-3" d="M26.5,5V27c0,1.65997-1.34003,3-3,3H8.5c-1.65997,0-3-1.34003-3-3V10.73999c0-.06,0-.12,.01001-.16998,.03998-.73004,.34998-1.42999,.87-1.95001L12.12,2.88c.56-.56,1.33002-.88,2.12-.88h9.26001c1.65997,0,3,1.33997,3,3Z"/>
  <path class="cls-2" d="M14.23999,2V7.57001c0,1.64996-1.34998,3-3,3H5.51001c.03998-.73004,.34998-1.42999,.87-1.95001L12.12,2.88c.56-.56,1.33002-.88,2.12-.88Z"/>
  <text class="cls-1" transform="translate(9.6626 27.46241)"><tspan x="0" y="0">F</tspan></text>
</svg>