<?xml version="1.0" encoding="UTF-8"?>
<svg version="1.1" xmlns="http://www.w3.org/2000/svg" width="657" height="588">
<path d="M0 0 C1.59279785 -0.00290039 1.59279785 -0.00290039 3.21777344 -0.00585938 C4.35118164 -0.00134766 5.48458984 0.00316406 6.65234375 0.0078125 C7.82829102 0.00974609 9.00423828 0.01167969 10.21582031 0.01367188 C17.50496401 0.04945169 24.74119044 0.29477391 32.01245117 0.77685547 C41.14842486 1.3246435 50.302202 1.18088415 59.45019531 1.09570312 C60.68995117 1.08732422 61.92970703 1.07894531 63.20703125 1.0703125 C64.31675293 1.05871094 65.42647461 1.04710937 66.56982422 1.03515625 C69.58984375 1.1328125 69.58984375 1.1328125 72.03564453 1.64208984 C75.36067247 2.2809071 78.45656921 2.1551706 81.83984375 2.046875 C82.53440674 2.02563568 83.22896973 2.00439636 83.94458008 1.98251343 C85.41382535 1.93638873 86.88298532 1.88747235 88.35205078 1.8359375 C90.55485573 1.75903399 92.75778889 1.69123781 94.9609375 1.625 C102.54544064 1.38452932 110.08228565 0.96792215 117.64648438 0.34228516 C122.04716677 0.02909791 126.42982319 -0.0136998 130.83984375 0.0078125 C131.67902344 0.00394531 132.51820313 0.00007813 133.3828125 -0.00390625 C139.4629794 0.00594815 139.4629794 0.00594815 140.58984375 1.1328125 C140.28092966 10.02071204 137.86970135 18.27002387 135.46166992 26.77368164 C134.7787097 29.1904788 134.11213427 31.61137431 133.44726562 34.03320312 C129.10699 49.66533282 129.10699 49.66533282 125.58984375 56.1328125 C120.70098458 58.35502121 116.65344493 58.14144798 111.33984375 58.0078125 C104.54347761 57.92878499 98.61575215 58.85359723 92.58984375 62.1328125 C90.18982777 64.49796142 88.98053908 67.08857565 87.58984375 70.1328125 C86.43808312 72.39047912 85.27037455 74.64005568 84.08984375 76.8828125 C83.54328125 77.97078125 82.99671875 79.05875 82.43359375 80.1796875 C80.58984375 83.1328125 80.58984375 83.1328125 77.953125 85.2109375 C75.1363942 87.50156817 74.87801263 88.62281697 74.27734375 92.1328125 C73.17042962 96.95947294 71.39477331 100.22484502 68.52734375 104.2578125 C63.56582922 111.06803846 63.56582922 111.06803846 62.58984375 119.1328125 C64.65948748 123.44836083 67.1806726 127.72364135 70.58984375 131.1328125 C70.63048207 132.79898365 70.63256475 134.46669345 70.58984375 136.1328125 C71.32074219 136.35453125 72.05164063 136.57625 72.8046875 136.8046875 C76.25251462 138.44881263 77.80056916 140.38890119 80.15234375 143.3828125 C80.93351563 144.37410156 81.7146875 145.36539063 82.51953125 146.38671875 C84.66561097 149.23331128 86.65888903 152.13650345 88.58984375 155.1328125 C90.14827234 157.23589599 91.72923666 159.31996881 93.3203125 161.3984375 C95.76133513 164.73324995 95.99394067 167.01102394 95.58984375 171.1328125 C94.08984375 173.9453125 94.08984375 173.9453125 91.58984375 176.1328125 C89.61328125 176.55859375 89.61328125 176.55859375 87.46484375 176.7578125 C86.18609375 176.8815625 84.90734375 177.0053125 83.58984375 177.1328125 C81.36263664 180.08955914 81.36263664 180.08955914 80.71484375 183.9453125 C79.42154623 189.36721363 77.14003328 192.9196207 72.71484375 196.3828125 C67.31848524 199.40477327 62.8213561 200.73199638 56.58984375 200.1328125 C54.40106401 196.8496429 54.38291587 196.42509847 54.90234375 192.7578125 C55.06476563 191.57251953 55.06476563 191.57251953 55.23046875 190.36328125 C55.6212969 187.93759786 56.04859191 185.52978492 56.58984375 183.1328125 C55.68234375 182.8440625 54.77484375 182.5553125 53.83984375 182.2578125 C47.01357131 179.89487204 47.01357131 179.89487204 45.18945312 176.61425781 C44.77501953 175.57366211 44.36058594 174.53306641 43.93359375 173.4609375 C43.46824219 172.32140625 43.00289062 171.181875 42.5234375 170.0078125 C42.05035156 168.8115625 41.57726562 167.6153125 41.08984375 166.3828125 C37.20705455 156.29184936 37.20705455 156.29184936 31.58984375 147.1328125 C27.22526116 147.69933053 24.43569738 149.29554522 20.77734375 151.6953125 C15.76178821 154.91714333 10.64624083 157.67123121 5.27734375 160.2578125 C-4.46346959 164.57944624 -4.46346959 164.57944624 -11.41015625 172.1328125 C-11.47027907 173.53519973 -11.47067068 174.94046656 -11.4375 176.34375 C-11.42525391 177.17648437 -11.41300781 178.00921875 -11.40039062 178.8671875 C-11.36538868 180.61987746 -11.32636191 182.37249192 -11.28320312 184.125 C-11.27224609 184.9603125 -11.26128906 185.795625 -11.25 186.65625 C-11.22474243 187.799729 -11.22474243 187.799729 -11.19897461 188.96630859 C-11.43756732 191.41402156 -12.19162067 193.01547546 -13.41015625 195.1328125 C-12.42015625 195.7928125 -11.43015625 196.4528125 -10.41015625 197.1328125 C-9.6105957 199.42016602 -9.6105957 199.42016602 -9.0234375 202.26171875 C-8.80751953 203.29748047 -8.59160156 204.33324219 -8.36914062 205.40039062 C-8.15580078 206.48771484 -7.94246094 207.57503906 -7.72265625 208.6953125 C-7.49771484 209.75556641 -7.27277344 210.81582031 -7.04101562 211.90820312 C-3.88406191 227.4626772 -3.88406191 227.4626772 -6.64086914 232.28613281 C-8.74730414 234.48470799 -10.10875703 234.95270193 -13.05078125 235.65234375 C-13.95699219 235.86955078 -14.86320313 236.08675781 -15.796875 236.31054688 C-16.74175781 236.52001953 -17.68664062 236.72949219 -18.66015625 236.9453125 C-19.58957031 237.17412109 -20.51898438 237.40292969 -21.4765625 237.63867188 C-26.88590103 238.88962923 -30.98061884 239.27920447 -36.41015625 238.1328125 C-37.40015625 238.1328125 -38.39015625 238.1328125 -39.41015625 238.1328125 C-40.07015625 238.7928125 -40.73015625 239.4528125 -41.41015625 240.1328125 C-43.84765625 240.5703125 -43.84765625 240.5703125 -46.41015625 240.1328125 C-49.29603222 236.35092913 -49.852239 233.28213685 -50.10546875 228.59375 C-50.18095947 227.30291504 -50.2564502 226.01208008 -50.33422852 224.68212891 C-50.40155935 223.29070723 -50.46852754 221.89926797 -50.53515625 220.5078125 C-50.61352804 219.08116361 -50.69288441 217.65456849 -50.77319336 216.22802734 C-51.35584399 205.58787176 -51.77366878 194.93853303 -52.06884766 184.28662109 C-52.10026855 183.23812988 -52.13168945 182.18963867 -52.1640625 181.109375 C-52.19995483 179.73386475 -52.19995483 179.73386475 -52.23657227 178.33056641 C-52.27517883 176.08993363 -52.27517883 176.08993363 -53.41015625 174.1328125 C-55.58476331 173.58466193 -55.58476331 173.58466193 -58.22265625 173.31640625 C-59.71345703 173.12981445 -59.71345703 173.12981445 -61.234375 172.93945312 C-62.28238281 172.81763672 -63.33039063 172.69582031 -64.41015625 172.5703125 C-65.42722656 172.44462891 -66.44429688 172.31894531 -67.4921875 172.18945312 C-70.46356438 171.82518292 -73.43622019 171.47551018 -76.41015625 171.1328125 C-77.25932617 171.03492432 -78.10849609 170.93703613 -78.98339844 170.83618164 C-82.8727929 170.39589572 -86.75848107 170.01183913 -90.66015625 169.6953125 C-94.25511967 169.35479578 -97.08597964 168.58713977 -100.41015625 167.1328125 C-101.07015625 167.4628125 -101.73015625 167.7928125 -102.41015625 168.1328125 C-103.01443295 170.56200485 -103.49495748 172.92010837 -103.91015625 175.3828125 C-104.0390625 176.09848389 -104.16796875 176.81415527 -104.30078125 177.55151367 C-105.30219568 183.19761339 -106.09939597 188.86535477 -106.78515625 194.55859375 C-107.48004078 197.4206494 -107.99136264 198.47813778 -110.41015625 200.1328125 C-117.36453579 201.73766932 -124.66998524 199.55248041 -131.41015625 197.8203125 C-132.24740234 197.60761719 -133.08464844 197.39492188 -133.94726562 197.17578125 C-134.73939453 196.95921875 -135.53152344 196.74265625 -136.34765625 196.51953125 C-137.41306641 196.22888794 -137.41306641 196.22888794 -138.5 195.93237305 C-140.7645891 194.98445264 -141.8490719 194.02383628 -143.41015625 192.1328125 C-144.00989937 184.96506461 -142.66830125 178.46044689 -141.109375 171.484375 C-140.75381279 169.84461197 -140.75381279 169.84461197 -140.3910675 168.17172241 C-139.89013998 165.86971629 -139.3847857 163.56866946 -138.87524414 161.26855469 C-138.10199386 157.77739641 -137.34177487 154.28360561 -136.58398438 150.7890625 C-136.09320853 148.54150045 -135.60169603 146.29409909 -135.109375 144.046875 C-134.88424728 143.01631989 -134.65911957 141.98576477 -134.4271698 140.92398071 C-133.32174274 135.94367647 -132.15771586 130.98116304 -130.88598633 126.04052734 C-130.54510735 124.712798 -130.54510735 124.712798 -130.19734192 123.35824585 C-128.62239423 118.90574977 -125.21271704 117.53116384 -121.19921875 115.5390625 C-120.27882813 114.745 -119.3584375 113.9509375 -118.41015625 113.1328125 C-118.36933548 110.19057726 -118.59675068 107.92192691 -119.09765625 105.0703125 C-120.4046838 93.69824416 -115.97418006 85.7665223 -110.41015625 76.1328125 C-110.02972168 75.45589355 -109.64928711 74.77897461 -109.25732422 74.08154297 C-106.77404558 69.67771534 -104.14011536 65.38738151 -101.41015625 61.1328125 C-100.98524902 60.46668945 -100.5603418 59.80056641 -100.12255859 59.11425781 C-98.81263849 57.07145792 -97.48995141 55.03772254 -96.16015625 53.0078125 C-95.75998291 52.39196289 -95.35980957 51.77611328 -94.94750977 51.14160156 C-92.43440588 47.37272702 -89.68567041 44.29096296 -86.41015625 41.1328125 C-85.33475593 39.86909323 -84.28865037 38.57935394 -83.28515625 37.2578125 C-82.56972656 36.33355469 -82.56972656 36.33355469 -81.83984375 35.390625 C-80.22562008 33.03796022 -80.22562008 33.03796022 -79.234375 29.65625 C-76.79566083 24.94592842 -74.03184392 23.78518436 -69.34765625 21.6328125 C-67.79279174 20.87285154 -66.2406796 20.10723277 -64.69140625 19.3359375 C-63.94632812 18.96533203 -63.20125 18.59472656 -62.43359375 18.21289062 C-59.86545877 16.84206182 -57.63170768 15.18189411 -55.34765625 13.3828125 C-51.18932771 10.31425282 -46.977071 8.68657727 -42.09765625 7.1328125 C-41.41501709 6.91270508 -40.73237793 6.69259766 -40.02905273 6.46582031 C-36.16507995 5.32932973 -33.2474419 4.75990171 -29.41015625 6.1328125 C-27.70334678 7.75834533 -26.0335543 9.42397245 -24.41015625 11.1328125 C-23.42015625 11.4628125 -22.43015625 11.7928125 -21.41015625 12.1328125 C-20.72953125 11.4315625 -20.04890625 10.7303125 -19.34765625 10.0078125 C-17.23319808 7.90536829 -15.07269864 5.86808739 -12.84765625 3.8828125 C-12.28949219 3.38265625 -11.73132813 2.8825 -11.15625 2.3671875 C-7.72176512 -0.06077049 -4.09965068 0.00488095 0 0 Z M-20.41015625 44.1328125 C-19.39777237 47.08559883 -18.37360988 49.17849547 -16.41015625 51.6328125 C-11.28056814 58.04479764 -11.71383578 65.25974907 -12.41015625 73.1328125 C-14.91734477 79.69925862 -21.43103476 82.9326052 -27.41015625 86.1328125 C-37.07682636 90.2735201 -47.36034667 91.85347369 -57.36328125 88.09375 C-60.6271951 86.56145457 -62.32975557 85.0958074 -64.41015625 82.1328125 C-65.1132289 79.50446533 -65.59019964 76.93820445 -65.953125 74.2421875 C-66.10394531 73.54609375 -66.25476563 72.85 -66.41015625 72.1328125 C-67.07015625 71.8028125 -67.73015625 71.4728125 -68.41015625 71.1328125 C-70.18397625 74.1727466 -71.95366848 77.21506431 -73.72265625 80.2578125 C-74.22216797 81.11375 -74.72167969 81.9696875 -75.23632812 82.8515625 C-78.91644686 89.18819078 -82.16692953 94.86876762 -83.82470703 102.07128906 C-84.8347346 105.62786655 -86.60564242 108.76348594 -88.34765625 112.0078125 C-93.88637847 121.72348764 -93.88637847 121.72348764 -94.96875 132.3984375 C-94.69224609 133.25695312 -94.69224609 133.25695312 -94.41015625 134.1328125 C-93.10304688 134.20628906 -93.10304688 134.20628906 -91.76953125 134.28125 C-73.40880963 135.43376283 -73.40880963 135.43376283 -68.41015625 137.1328125 C-66.16015625 140.2578125 -66.16015625 140.2578125 -65.41015625 143.1328125 C-63.46940764 142.85663717 -63.46940764 142.85663717 -61.41015625 142.1328125 C-60.42015625 140.6478125 -60.42015625 140.6478125 -59.41015625 139.1328125 C-56.65136719 138.67211914 -56.65136719 138.67211914 -53.14453125 138.54296875 C-51.860625 138.48044922 -50.57671875 138.41792969 -49.25390625 138.35351562 C-46.57181477 138.24614222 -43.88943759 138.14822559 -41.20703125 138.04882812 C-29.13985122 137.45624339 -17.96545211 135.03230153 -7.22265625 129.3828125 C-6.56048096 129.04354736 -5.89830566 128.70428223 -5.21606445 128.35473633 C1.8448721 124.63750923 9.3251136 120.21536481 14.58984375 114.1328125 C14.58984375 113.4728125 14.58984375 112.8128125 14.58984375 112.1328125 C15.95109375 111.8234375 15.95109375 111.8234375 17.33984375 111.5078125 C21.42193317 109.78077467 22.21212725 107.80746528 24.58984375 104.1328125 C26.25 102.9453125 26.25 102.9453125 28.08984375 101.8203125 C31.73573757 99.35894958 32.8223713 96.99129235 34.375 92.953125 C35.62813184 90.04392503 37.11513596 87.42326725 38.72143555 84.69970703 C42.58597266 78.14030043 45.87590968 71.53903267 48.65234375 64.4453125 C48.95116455 63.6912915 49.24998535 62.93727051 49.55786133 62.16040039 C51.62262007 56.79533571 51.62262007 56.79533571 51.58984375 51.1328125 C48.23047231 45.87717695 43.87907125 42.84512766 37.90234375 41.2578125 C37.01160156 41.07476562 36.12085938 40.89171875 35.203125 40.703125 C32.58984375 40.1328125 32.58984375 40.1328125 30.2421875 39.1328125 C24.39896374 36.92977085 17.7726637 36.75478941 11.58984375 36.1328125 C10.77 36.03355469 9.95015625 35.93429687 9.10546875 35.83203125 C-0.77542524 35.16181557 -11.51295702 40.19262427 -20.41015625 44.1328125 Z " fill="#CAB586" transform="translate(516.41015625,334.8671875)"/>
<path d="M0 0 C1.56697017 0.02999237 3.13407178 0.0538163 4.70123291 0.07116699 C19.76386979 0.25845561 19.76386979 0.25845561 26.29019165 4.18231201 C28.09780688 5.08670328 28.09780688 5.08670328 30.13345337 4.17327881 C31.42355559 3.43462674 32.70212165 2.67559816 33.97085571 1.90081787 C39.66290039 -0.94520447 46.01319645 0.72983409 51.80679321 2.48284912 C52.66788696 2.78448975 53.52898071 3.08613037 54.41616821 3.39691162 C57.11249472 4.09045538 57.11249472 4.09045538 59.79336548 2.88690186 C65.76040932 1.00532111 72.06631176 1.91195221 78.24429321 2.29534912 C78.97244232 2.33841187 79.70059143 2.38147461 80.45080566 2.42584229 C95.18869326 3.35007006 108.98959413 6.32554524 123.05679321 10.85784912 C123.88002075 11.1214624 124.70324829 11.38507568 125.55142212 11.65667725 C160.64166153 23.1952578 184.26473674 47.40138843 200.95303345 79.55706787 C205.08226501 87.79262766 208.35194449 96.42599536 211.74429321 104.98284912 C212.48376772 106.82820588 213.22399898 108.67325958 213.96499634 110.51800537 C215.70521474 114.85648844 217.42557484 119.20250042 219.13973999 123.55133057 C219.98579945 125.67928977 220.85040777 127.79840322 221.72329712 129.91546631 C222.19042114 131.06949951 222.65754517 132.22353271 223.13882446 133.41253662 C223.5394812 134.38432861 223.94013794 135.35612061 224.35293579 136.35736084 C225.3334973 139.84085407 224.63131071 141.70881412 223.05679321 144.85784912 C224.23241821 146.18816162 224.23241821 146.18816162 225.43179321 147.54534912 C228.66556331 151.98385709 228.88635759 156.49972901 229.53335571 161.83441162 C230.18893412 165.6211108 231.66426436 167.88531327 234.05679321 170.85784912 C237.33254296 176.65340637 238.96079953 181.97803873 239.18179321 188.60784912 C237.97206729 192.10261289 237.66843454 192.52040207 234.61929321 194.23284912 C230.59842131 195.94477669 226.83356222 196.25156999 222.50991821 196.51019287 C219.18747235 196.98104905 216.7742168 198.38289157 213.87319946 199.99456787 C211.17111196 201.2787858 208.98262464 201.26610467 206.05679321 200.85784912 C203.05679321 198.85784912 203.05679321 198.85784912 202.21304321 196.15570068 C201.99648071 195.03131592 201.77991821 193.90693115 201.55679321 192.74847412 C201.30929321 191.5187085 201.06179321 190.28894287 200.80679321 189.02191162 C200.43554321 187.08445068 200.43554321 187.08445068 200.05679321 185.10784912 C199.56457878 182.56986846 199.06482402 180.03333616 198.55679321 177.49847412 C198.34023071 176.36957764 198.12366821 175.24068115 197.90054321 174.07757568 C197.01688333 170.70555413 195.71869858 167.91275433 194.05679321 164.85784912 C183.74029956 166.51431412 173.4831264 168.44866927 163.22036743 170.40423584 C161.09060739 170.80956659 158.96044416 171.2127217 156.83023071 171.61566162 C155.5764563 171.85429932 154.32268188 172.09293701 153.03091431 172.33880615 C150.05679321 172.85784912 150.05679321 172.85784912 148.05679321 172.85784912 C148.04221069 173.59946289 148.02762817 174.34107666 148.01260376 175.10516357 C147.93819864 178.46075543 147.84151315 181.81534406 147.74429321 185.17034912 C147.71045532 186.92121826 147.71045532 186.92121826 147.67593384 188.7074585 C147.64048462 189.82572021 147.6050354 190.94398193 147.56851196 192.09613037 C147.54232788 193.1277832 147.5161438 194.15943604 147.48916626 195.22235107 C147.00076205 198.19938292 146.45632737 199.09579779 144.05679321 200.85784912 C143.19054321 201.16722412 142.32429321 201.47659912 141.43179321 201.79534912 C138.86554637 202.60764922 138.86554637 202.60764922 138.24429321 204.98284912 C138.18241821 205.60159912 138.12054321 206.22034912 138.05679321 206.85784912 C139.72741821 207.01253662 139.72741821 207.01253662 141.43179321 207.17034912 C142.62804321 207.39722412 143.82429321 207.62409912 145.05679321 207.85784912 C148.65232268 213.25114331 148.51823939 220.90992071 147.77554321 227.26409912 C146.87478249 230.80709129 146.17551936 231.77869835 143.05679321 233.85784912 C140.74429321 234.02484131 140.74429321 234.02484131 138.05679321 233.90472412 C137.08741821 233.86218506 136.11804321 233.819646 135.11929321 233.77581787 C134.10866821 233.72038818 133.09804321 233.6649585 132.05679321 233.60784912 C131.04616821 233.56788818 130.03554321 233.52792725 128.99429321 233.48675537 C121.44283054 233.11520734 121.44283054 233.11520734 118.05679321 230.85784912 C114.93157488 230.6908568 114.93157488 230.6908568 112.05679321 230.85784912 C111.72679321 230.19784912 111.39679321 229.53784912 111.05679321 228.85784912 C109.79866821 228.96097412 108.54054321 229.06409912 107.24429321 229.17034912 C105.09976196 229.34613037 105.09976196 229.34613037 103.05679321 228.85784912 C101.0452215 226.21333738 100.04145508 224.62088525 100.10903931 221.25872803 C100.30578247 220.33495361 100.50252563 219.4111792 100.70523071 218.45941162 C100.91502563 217.40656982 101.12482056 216.35372803 101.3409729 215.26898193 C101.5771936 214.14330811 101.81341431 213.01763428 102.05679321 211.85784912 C102.49345133 209.47109305 102.92294339 207.08301663 103.34585571 204.69378662 C104.01621459 200.9476635 104.68747013 197.20204066 105.37710571 193.45941162 C107.63808087 181.72658092 107.63808087 181.72658092 106.18179321 170.04534912 C102.74540744 166.50789318 98.4979953 164.89914697 94.05679321 162.85784912 C91.38041805 161.56474542 88.7173532 160.24564563 86.05679321 158.92034912 C85.02449585 158.40710083 85.02449585 158.40710083 83.97134399 157.88348389 C77.41628161 154.59346984 71.15946471 150.92629678 65.05679321 146.85784912 C62.55394953 146.58512856 62.55394953 146.58512856 60.05679321 147.85784912 C58.17542932 150.18756452 56.85940916 152.76397167 55.49429321 155.42034912 C54.93451782 156.45772217 54.93451782 156.45772217 54.36343384 157.51605225 C52.45169039 161.08353175 50.63666399 164.69521619 48.84194946 168.32269287 C47.05679321 171.85784912 47.05679321 171.85784912 46.05679321 172.85784912 C44.37495374 173.0907192 42.68555161 173.27049078 40.99429321 173.42034912 C40.07519165 173.50413818 39.15609009 173.58792725 38.20913696 173.67425537 C37.49886353 173.73484131 36.78859009 173.79542725 36.05679321 173.85784912 C36.42933228 174.33093506 36.80187134 174.804021 37.18569946 175.29144287 C40.59465298 180.05654683 41.56055264 183.07555614 40.64663696 188.87738037 C40.05679321 190.85784912 40.05679321 190.85784912 38.05679321 193.85784912 C30.84021015 195.20721022 24.59398847 191.37391166 18.18179321 188.42034912 C16.4531604 187.64594482 16.4531604 187.64594482 14.68960571 186.855896 C6.24646662 183.04752252 6.24646662 183.04752252 5.05679321 181.85784912 C5.01598538 179.85826548 5.01424965 177.85739658 5.05679321 175.85784912 C4.39679321 176.18784912 3.73679321 176.51784912 3.05679321 176.85784912 C-2.48166833 177.08861835 -2.48166833 177.08861835 -4.94320679 175.85784912 C-5.98665129 169.94499691 -4.7190308 166.96114279 -1.31820679 162.04534912 C0.43965923 159.62331118 2.24528489 157.23992488 4.05679321 154.85784912 C5.89385183 152.41202164 7.72514892 149.96212689 9.55044556 147.50750732 C10.78179994 145.85510196 12.02142044 144.20881656 13.27017212 142.56951904 C15.85286954 139.12772654 18.18201147 135.9320176 19.78335571 131.92034912 C21.41196195 128.003701 23.52100438 127.06771714 27.05679321 124.85784912 C29.82229453 121.64629921 30.06243792 120.21346559 29.99429321 115.92034912 C29.14253452 111.00422012 26.81828134 107.44887065 23.11929321 104.10784912 C20.39613893 101.13713536 18.97451718 97.84239482 17.30288696 94.19769287 C16.20824495 91.84836204 16.20824495 91.84836204 14.50991821 90.37738037 C12.53204041 88.30911568 12.1384477 86.35429343 11.36929321 83.60784912 C9.80748899 78.62324025 7.74208307 74.20378342 5.18179321 69.67034912 C1.67323257 63.43372526 -0.83651471 57.11915925 -3.04037476 50.31610107 C-4.33942568 46.21477641 -4.33942568 46.21477641 -6.94320679 42.85784912 C-9.51987807 42.98817322 -9.51987807 42.98817322 -12.44320679 43.60784912 C-14.05389038 43.90562256 -14.05389038 43.90562256 -15.69711304 44.20941162 C-19.36710417 44.94252658 -23.03413624 45.68664917 -26.68930054 46.49066162 C-31.03235705 47.19819596 -33.19575879 47.35614778 -36.94320679 44.85784912 C-37.97055054 42.63397217 -37.97055054 42.63397217 -38.88070679 39.86956787 C-39.2171521 38.85878174 -39.55359741 37.84799561 -39.90023804 36.80657959 C-40.24441772 35.73037354 -40.58859741 34.65416748 -40.94320679 33.54534912 C-41.29769897 32.45625244 -41.65219116 31.36715576 -42.01742554 30.24505615 C-48.34131858 10.54166263 -48.34131858 10.54166263 -47.94320679 1.85784912 C-41.64949415 -4.43586352 -9.47158208 -0.18912567 0 0 Z M53.55679321 37.29534912 C52.4356311 37.33442383 51.31446899 37.37349854 50.15933228 37.41375732 C49.12518188 37.45589355 48.09103149 37.49802979 47.02554321 37.54144287 C46.11224243 37.57810059 45.19894165 37.6147583 44.25796509 37.65252686 C42.01528179 37.72768388 42.01528179 37.72768388 40.05679321 38.85784912 C39.56478721 52.79529894 39.56478721 52.79529894 44.01773071 65.68597412 C45.32193221 68.41204942 45.90261424 71.09794936 46.55679321 74.04534912 C47.9047002 79.80656449 49.59736862 82.99666295 54.36929321 86.60784912 C57.48312269 89.21477612 59.69752917 92.10095738 62.11538696 95.34613037 C62.75605103 96.17499756 63.39671509 97.00386475 64.05679321 97.85784912 C64.46397583 98.39901367 64.87115845 98.94017822 65.29067993 99.4977417 C69.2851429 104.52158428 73.83827004 107.6361048 79.30679321 110.92034912 C80.57378052 111.70502563 80.57378052 111.70502563 81.86636353 112.5055542 C86.12352506 115.13162407 90.42842976 117.62643845 94.80679321 120.04534912 C99.79424273 122.95906963 102.87409327 127.11541543 106.05679321 131.85784912 C106.81218384 131.52398193 107.56757446 131.19011475 108.34585571 130.84613037 C113.07520715 129.12202963 117.60148807 130.53292788 122.38101196 131.60003662 C136.84544185 135.06217854 136.84544185 135.06217854 151.05679321 132.85784912 C152.51852096 132.60590788 153.9876387 132.39600015 155.45913696 132.20941162 C156.34488403 132.0926709 157.2306311 131.97593018 158.14321899 131.85565186 C159.08407349 131.73262695 160.02492798 131.60960205 160.99429321 131.48284912 C174.13443955 130.02034964 174.13443955 130.02034964 186.05679321 124.85784912 C185.64631003 118.08100412 183.66024039 113.42892925 180.36929321 107.54534912 C179.91232056 106.7072168 179.4553479 105.86908447 178.98452759 105.0055542 C178.08202237 103.35208143 177.17479494 101.70117547 176.26235962 100.05316162 C175.28509258 98.27357774 174.34314629 96.47462849 173.41226196 94.67034912 C170.6015888 89.22720109 167.34344571 84.2235847 163.80679321 79.23284912 C163.36980103 78.61562988 162.93280884 77.99841064 162.48257446 77.36248779 C160.22791947 74.10652074 160.22791947 74.10652074 157.05679321 71.85784912 C156.71648071 72.66609131 156.37616821 73.4743335 156.02554321 74.30706787 C152.87463648 81.2541468 150.37940988 86.09065708 143.05679321 88.85784912 C131.34423191 92.67758625 121.92591409 90.29240956 111.22085571 84.93988037 C105.08661586 80.90339908 100.76586795 75.02853224 99.05679321 67.85784912 C98.21866233 58.25500916 98.80607688 48.39456117 100.05679321 38.85784912 C94.21041216 36.30761739 88.55859918 36.59576845 82.30679321 36.67034912 C81.17821899 36.67751953 80.04964478 36.68468994 78.88687134 36.69207764 C70.4400028 36.77087305 61.99846923 36.99419878 53.55679321 37.29534912 Z " fill="#CAB586" transform="translate(47.943206787109375,335.14215087890625)"/>
<path d="M0 0 C1.64258789 0.07831055 1.64258789 0.07831055 3.31835938 0.15820312 C5.98348163 0.2862221 8.64806082 0.42108495 11.3125 0.5625 C11.6425 1.8825 11.9725 3.2025 12.3125 4.5625 C11.76722656 4.96339844 11.22195313 5.36429687 10.66015625 5.77734375 C0.96688605 13.08457821 -6.89230826 20.82370004 -12.6875 31.5625 C-13.09226562 32.31208984 -13.49703125 33.06167969 -13.9140625 33.83398438 C-21.93531962 48.9969748 -27.17861267 64.48693911 -31.80883789 80.92480469 C-32.6875 83.5625 -32.6875 83.5625 -34.6875 86.5625 C-38.3125 87.75 -38.3125 87.75 -41.6875 88.5625 C-41.56739974 91.38099108 -41.56739974 91.38099108 -40.6875 94.5625 C-39.800625 95.284375 -38.91375 96.00625 -38 96.75 C-35.6875 99.5625 -35.6875 99.5625 -35.88859558 101.84062195 C-36.20320488 103.1680114 -36.20320488 103.1680114 -36.52416992 104.5222168 C-37.74402431 110.41845127 -37.99381263 116.01254629 -37.98828125 122.01953125 C-37.99470894 123.61591682 -37.99470894 123.61591682 -38.00126648 125.24455261 C-38.00697495 127.48749079 -38.00753596 129.73044747 -38.00317383 131.97338867 C-38.00004357 135.32830232 -38.02341482 138.68230621 -38.04882812 142.03710938 C-38.08107405 153.5850878 -37.60800848 164.78348872 -35.73884583 176.19380188 C-34.78989318 182.03660168 -34.51977365 187.64477401 -34.6875 193.5625 C-39.43397098 195.43267364 -43.71006738 195.85652806 -48.75390625 195.828125 C-49.51041977 195.83003845 -50.26693329 195.8319519 -51.04637146 195.83392334 C-52.63728165 195.83527782 -54.22820316 195.83163312 -55.8190918 195.82324219 C-58.24618436 195.81251686 -60.67253937 195.82316991 -63.09960938 195.8359375 C-64.65104329 195.83461607 -66.20247675 195.832054 -67.75390625 195.828125 C-68.47485977 195.83217346 -69.19581329 195.83622192 -69.93861389 195.84039307 C-73.96024265 195.8031621 -77.06559814 195.33969828 -80.6875 193.5625 C-80.88617728 185.7612976 -80.31721043 178.28612525 -79.25 170.5625 C-78.9785978 168.54191709 -78.70905618 166.52108337 -78.44140625 164.5 C-78.24442139 163.02853516 -78.24442139 163.02853516 -78.04345703 161.52734375 C-77.58063584 157.67240514 -77.2948952 153.81172093 -77.04663086 149.9375 C-76.6875 147.5625 -76.6875 147.5625 -75.52954102 145.5625 C-74.40451252 143.53774185 -74.40451252 143.53774185 -75.53833008 141.36450195 C-75.91755615 140.43984131 -76.29678223 139.51518066 -76.6875 138.5625 C-77.02231914 135.6242883 -77.03395299 132.685611 -77.07421875 129.73046875 C-77.11943376 127.95640771 -77.1667985 126.18240044 -77.21606445 124.40844727 C-77.24044586 123.48428009 -77.26482727 122.56011292 -77.28994751 121.60794067 C-78.6162949 77.03990816 -97.4419363 39.96846111 -127.6875 7.5625 C-128.43515625 6.86898438 -129.1828125 6.17546875 -129.953125 5.4609375 C-131.6875 3.5625 -131.6875 3.5625 -131.6875 0.5625 C-127.01026886 0.43789142 -122.33402636 0.34769377 -117.65551758 0.2878418 C-116.06778103 0.26286472 -114.48015748 0.22887019 -112.89282227 0.18530273 C-96.01566074 -0.26595827 -96.01566074 -0.26595827 -88.6875 5.5625 C-87.08648437 6.70912109 -87.08648437 6.70912109 -85.453125 7.87890625 C-82.11322329 11.11974308 -79.84734403 14.54501805 -77.4375 18.5 C-73.18472087 25.30092281 -68.69599486 31.80654638 -63.87890625 38.21875 C-61.29614123 42.1596535 -59.47264919 46.21520126 -57.6875 50.5625 C-57.15177368 49.49104736 -57.15177368 49.49104736 -56.60522461 48.39794922 C-56.10514893 47.39779785 -55.60507324 46.39764648 -55.08984375 45.3671875 C-54.53901123 44.26487793 -53.98817871 43.16256836 -53.4206543 42.02685547 C-52.22042241 39.62606201 -51.01719224 37.2268034 -49.81176758 34.82861328 C-46.10171906 27.45206605 -46.10171906 27.45206605 -42.546875 20 C-38.82150827 12.06183538 -34.91519228 5.23443161 -26.875 1.125 C-17.87741164 -0.46280971 -9.09921105 -0.48477119 0 0 Z " fill="#CAB586" transform="translate(386.6875,392.4375)"/>
<path d="M0 0 C2.13358612 1.66875884 3.85158616 3.18302802 5.6875 5.125 C6.19659912 5.6514209 6.70569824 6.1778418 7.23022461 6.72021484 C26.15813606 26.79025268 41.48943297 51.09131877 42.8125 79.125 C42.90821289 80.55005859 42.90821289 80.55005859 43.00585938 82.00390625 C43.29522353 87.88085153 42.93674593 91.85229432 40 97 C38.4921875 98.609375 38.4921875 98.609375 36.875 99.75 C32.671853 103.06827394 29.56542774 107.04484006 26.25390625 111.23046875 C24.26892734 113.66955028 22.19441633 115.87823179 20 118.125 C15.63646492 122.89870738 12.92704639 128.4493324 10.14453125 134.23681641 C9.61666016 135.30875244 9.61666016 135.30875244 9.078125 136.40234375 C8.77293945 137.04679443 8.46775391 137.69124512 8.15332031 138.35522461 C6.72111396 140.39772549 5.21845381 140.93739832 3 142 C2.2662645 144.27905376 2.2662645 144.27905376 2.0625 146.875 C1.45720985 150.58708912 1.26014538 151.71931683 -1.375 154.5625 C-5.82608696 157 -5.82608696 157 -8 157 C-13.57672591 154.0493913 -15.45698822 150.9624398 -17.875 145.4375 C-24.39010903 131.58410704 -34.33983004 119.22718655 -45.4375 108.6875 C-52.11830739 102.1706388 -55.05492554 93.71059743 -55.1796875 84.4609375 C-55.12850525 78.64215493 -54.10905767 73.17159063 -52.875 67.5 C-52.64981689 66.45408691 -52.42463379 65.40817383 -52.19262695 64.33056641 C-46.26565611 37.71710594 -35.39793915 15.5538417 -11.9453125 0.12890625 C-7.36783505 -2.52750135 -4.83935698 -1.82442212 0 0 Z " fill="#CAB586" transform="translate(339,145)"/>
<path d="M0 0 C6.70994083 0.34503079 11.19637318 3.10289675 16.8125 6.625 C17.70469238 7.17478516 18.59688477 7.72457031 19.51611328 8.29101562 C22.02129499 9.84465934 24.51346314 11.41673133 27 13 C28.00160156 13.63679687 29.00320312 14.27359375 30.03515625 14.9296875 C36.90751332 19.54185368 43.08692674 25.0392518 49.28369141 30.50537109 C50.90071663 31.91354015 52.54300309 33.28286877 54.19921875 34.64453125 C59.71689846 39.3224039 62.71993473 42.73761481 64.921875 49.61328125 C67.42904613 55.16357676 73.18764329 58.60367926 77.89282227 62.22875977 C81.02226969 64.85033784 83.01399082 67.71719446 85.12890625 71.2265625 C85.48589096 71.81488861 85.84287567 72.40321472 86.2106781 73.0093689 C86.9593588 74.24840703 87.70279706 75.49062687 88.44116211 76.73583984 C89.55158435 78.60660999 90.67944661 80.46589465 91.81054688 82.32421875 C97.73955156 92.14370592 102.87116073 101.94874474 105.6875 113.125 C105.89463623 113.93340332 106.10177246 114.74180664 106.31518555 115.57470703 C109.25160908 127.5373955 111.28710381 140.69680181 110 153 C109.34 153.99 108.68 154.98 108 156 C101.79269464 156.81845671 96.65289229 154.80833639 90.875 152.6875 C89.99457031 152.37876953 89.11414063 152.07003906 88.20703125 151.75195312 C79.23702599 148.53871595 79.23702599 148.53871595 76 146 C75.3828125 144.0625 75.3828125 144.0625 75.125 142 C74.57336947 139.7680375 74.57336947 139.7680375 73 138 C69.92574324 137.10627759 66.91457564 136.60305962 63.75341797 136.12817383 C57.20881063 135.06048542 54.20277454 132.97314055 50 128 C49.23300781 127.15824219 48.46601563 126.31648438 47.67578125 125.44921875 C23.71445571 97.91479356 4.36023032 57.83488626 -0.71313477 21.96411133 C-0.98436173 20.10707223 -1.30896282 18.25805623 -1.63671875 16.41015625 C-2.02925988 12.72533464 -1.70084603 9.70482737 -1.0625 6.0625 C-0.86785156 4.91910156 -0.67320312 3.77570313 -0.47265625 2.59765625 C-0.31667969 1.74042969 -0.16070312 0.88320312 0 0 Z " fill="#CAB586" transform="translate(212,215)"/>
<path d="M0 0 C0.91577607 4.358182 0.95189231 7.80780069 0.21484375 12.19140625 C0.01697266 13.37355713 -0.18089844 14.55570801 -0.38476562 15.77368164 C-0.60841797 17.0239917 -0.83207031 18.27430176 -1.0625 19.5625 C-1.29001953 20.85212646 -1.51753906 22.14175293 -1.75195312 23.47045898 C-3.16164457 31.26327246 -4.82881283 38.94518642 -7 46.5625 C-7.22437744 47.35019775 -7.44875488 48.13789551 -7.67993164 48.94946289 C-15.08865825 73.51250133 -28.18254298 100.18562468 -46.01953125 118.875 C-47.86364656 120.85369572 -49.43191352 122.8628828 -51 125.0625 C-62.00095406 139.86918951 -78.04234013 148.90412678 -96.1875 151.6875 C-96.96802734 151.81705078 -97.74855469 151.94660156 -98.55273438 152.08007812 C-106.84706422 153.40970352 -106.84706422 153.40970352 -110 153 C-112.52594299 149.21108552 -112.34355833 146.14292647 -112.3125 141.75 C-112.30621582 140.54706299 -112.30621582 140.54706299 -112.29980469 139.31982422 C-111.89933374 117.78385995 -103.19344394 100.08021282 -91.95703125 82.18359375 C-90.10281349 79.16725149 -88.39486894 76.10097318 -86.6875 73 C-80.65489808 62.55735805 -71.53017315 50.11791898 -60 46 C-58.33749823 45.64647951 -56.67133391 45.3090823 -55 45 C-54.99742187 44.29875 -54.99484375 43.5975 -54.9921875 42.875 C-54.69098355 35.4854631 -53.36261637 31.1441394 -48 26 C-12.98243299 -4.02903093 -12.98243299 -4.02903093 0 0 Z " fill="#CAB586" transform="translate(449,218)"/>
<path d="M0 0 C2.92151251 1.64669934 5.16123355 3.8191018 7.56054688 6.14550781 C8.59731682 7.1322971 9.63643034 8.11662929 10.67773438 9.09863281 C11.1969043 9.58912109 11.71607422 10.07960938 12.25097656 10.58496094 C14.64712391 12.79055681 17.15794321 14.84312119 19.68554688 16.89550781 C20.58402344 17.62640625 21.4825 18.35730469 22.40820312 19.11035156 C23.79231892 20.21089241 25.1894346 21.29628571 26.61914062 22.33691406 C30.71178206 25.38779223 32.77988659 29.06553983 35.25195312 33.41894531 C36.74876686 35.91738628 38.36536495 38.12543965 40.18554688 40.39550781 C42.97305828 43.9126363 45.66119042 47.47737274 48.24804688 51.14550781 C48.92738281 52.09683594 49.60671875 53.04816406 50.30664062 54.02832031 C52.11832831 57.63287296 52.19402956 60.03418163 51.81054688 64.02050781 C49.7932752 67.38262727 47.11464574 69.64669948 44.16992188 72.16894531 C39.78642383 75.98856611 35.65881621 80.02386432 31.56054688 84.14550781 C30.52027344 85.17998047 30.52027344 85.17998047 29.45898438 86.23535156 C26.00941302 89.69153129 22.84055591 93.18565263 19.81054688 97.02050781 C18.59220171 98.15950697 17.34224963 99.2658049 16.06054688 100.33300781 C12.38460005 103.45448221 9.05652087 106.79692725 5.76757812 110.32128906 C2.43778074 113.2124305 -0.24459955 114.05486612 -4.62695312 113.89550781 C-10.77536854 112.38537069 -15.00779243 108.45064644 -19.56445312 104.20800781 C-22.7968852 101.22052323 -26.0364645 98.26160752 -29.37695312 95.39550781 C-34.3130546 91.09795745 -39.15616208 86.62566197 -43.18945312 81.45800781 C-46.78168594 77.07997407 -51.26637239 73.53213871 -55.70898438 70.04003906 C-56.93681641 69.04037109 -56.93681641 69.04037109 -58.18945312 68.02050781 C-58.95257813 67.42238281 -59.71570313 66.82425781 -60.50195312 66.20800781 C-62.18945312 64.02050781 -62.18945312 64.02050781 -62.76757812 60.80957031 C-61.9950371 55.74629468 -59.82340564 52.5489865 -56.93945312 48.39550781 C-56.44832031 47.65816406 -55.9571875 46.92082031 -55.45117188 46.16113281 C-54.0603052 44.09152321 -52.63473683 42.0523634 -51.18945312 40.02050781 C-50.16464844 38.56451172 -50.16464844 38.56451172 -49.11914062 37.07910156 C-46.91823098 34.73116759 -45.70013408 34.22712556 -42.56445312 33.70800781 C-41.7884375 33.5675 -41.01242187 33.42699219 -40.21289062 33.28222656 C-38.18945312 33.02050781 -38.18945312 33.02050781 -36.18945312 33.02050781 C-36.31964844 32.28445312 -36.44984375 31.54839844 -36.58398438 30.79003906 C-36.72191406 29.81421875 -36.85984375 28.83839844 -37.00195312 27.83300781 C-37.15277344 26.87007812 -37.30359375 25.90714844 -37.45898438 24.91503906 C-37.07736933 20.81682534 -35.25279409 19.66438715 -32.18945312 17.02050781 C-31.38507813 16.2303125 -30.58070313 15.44011719 -29.75195312 14.62597656 C-9.55872266 -4.42830646 -9.55872266 -4.42830646 0 0 Z " fill="#CAB586" transform="translate(335.189453125,1.9794921875)"/>
<path d="M0 0 C12.084976 6.11739488 17.08801038 25.24973754 21.05859375 37.21484375 C27.93476617 58.53963462 33.96907286 79.31054384 34.265625 101.83203125 C34.27980469 102.65896484 34.29398437 103.48589844 34.30859375 104.33789062 C34.25488757 110.83096755 32.78775391 114.97166379 28.203125 119.76953125 C22.70650294 124.19448486 16.33120325 127.40268788 10.14013672 130.73974609 C7.80969872 132.00082314 5.49266845 133.28453328 3.17578125 134.5703125 C1.64379385 135.40858491 0.1112563 136.24585279 -1.421875 137.08203125 C-2.50637939 137.68591675 -2.50637939 137.68591675 -3.61279297 138.30200195 C-5.40508617 139.26525803 -7.25436088 140.12090937 -9.109375 140.95703125 C-10.099375 140.62703125 -11.089375 140.29703125 -12.109375 139.95703125 C-12.21894531 139.39757812 -12.32851563 138.838125 -12.44140625 138.26171875 C-12.78514983 136.52343818 -13.13624608 134.78660517 -13.4921875 133.05078125 C-13.91087992 130.95201926 -14.30061306 128.84731178 -14.6640625 126.73828125 C-16.45930883 117.07498004 -19.85231292 108.74110379 -24.109375 99.95703125 C-24.56054688 99.00183594 -25.01171875 98.04664063 -25.4765625 97.0625 C-32.83990549 82.53187937 -44.59349073 68.03852972 -56.3671875 56.83984375 C-59.72114507 53.31388835 -59.72114507 53.31388835 -60.109375 49.95703125 C-57.85379475 44.88197568 -55.24167549 41.98160044 -50.95703125 38.54296875 C-48.34540493 36.30127681 -46.22565682 33.72211934 -44 31.10546875 C-40.5636183 27.20048954 -36.81387534 23.60508206 -33.109375 19.95703125 C-31.9028125 18.71953125 -31.9028125 18.71953125 -30.671875 17.45703125 C-9.58066856 -3.11975552 -9.58066856 -3.11975552 0 0 Z " fill="#CAB586" transform="translate(412.109375,79.04296875)"/>
<path d="M0 0 C6.18964649 3.42296613 11.43337302 7.92853704 16.5 12.8125 C17.17216553 13.45195557 17.84433105 14.09141113 18.53686523 14.75024414 C23.76907216 19.75420246 28.92884752 24.83265653 34.0625 29.9375 C35.09697266 30.96484253 35.09697266 30.96484253 36.15234375 32.01293945 C40.11666813 35.99027901 43.89511697 40.07642133 47.55249023 44.33813477 C48.65358915 45.60229066 49.8145657 46.8145657 51 48 C51.77666259 52.51548015 51.64409698 56.63229834 49.0625 60.5 C46.19374324 63.97728092 46.19374324 63.97728092 43.6015625 64.28125 C42.12816406 64.38953125 42.12816406 64.38953125 40.625 64.5 C37.47979491 64.73236344 35.00372093 64.99875969 32 66 C31.855625 67.216875 31.71125 68.43375 31.5625 69.6875 C31.39170237 71.12708003 31.20291076 72.56459423 31 74 C30.90203125 74.75539063 30.8040625 75.51078125 30.703125 76.2890625 C29.72831369 80.04750167 27.98708241 83.26143476 26.1875 86.6875 C21.23724175 96.15150217 17.63655776 105.09946933 15.9375 115.6875 C15.60916074 117.6108631 15.27972783 119.53403982 14.94921875 121.45703125 C14.79114746 122.39240723 14.63307617 123.3277832 14.47021484 124.29150391 C13.79746151 128.16664697 13.03533293 132.02132344 12.25 135.875 C12.00765625 137.06867188 11.7653125 138.26234375 11.515625 139.4921875 C11.34546875 140.31976563 11.1753125 141.14734375 11 142 C6.55799943 142 5.40231276 141.30444659 1.73828125 139 C0.70920654 138.36368652 -0.31986816 137.72737305 -1.38012695 137.07177734 C-2.47156006 136.38809082 -3.56299316 135.7044043 -4.6875 135 C-12.87450487 129.9528354 -20.97310143 125.20319469 -29.87182617 121.5234375 C-34.09707562 119.71440236 -36.52632337 117.89319566 -39 114 C-48.37579935 84.29232294 -32.18300717 42.23447493 -19.00146484 15.89111328 C-9.80255056 -1.47963027 -9.80255056 -1.47963027 0 0 Z " fill="#CAB586" transform="translate(256,78)"/>
</svg>
