<?xml version="1.0" encoding="UTF-8"?>
<svg id="XLink" xmlns="http://www.w3.org/2000/svg" viewBox="0 0 32 32">
  <defs>
    <style>
      .cls-1 {
        fill: #f4d3b3;
      }

      .cls-2 {
        fill: #f6921e;
      }
    </style>
  </defs>
  <path class="cls-2" d="M26.5,5V27c0,1.65997-1.34003,3-3,3H8.5c-1.65997,0-3-1.34003-3-3V10.73999c0-.06,0-.12,.01001-.16998,.03998-.73004,.34998-1.42999,.87-1.95001L12.12,2.88c.56-.56,1.33002-.88,2.12-.88h9.26001c1.65997,0,3,1.33997,3,3Z"/>
  <path class="cls-1" d="M14.23999,2V7.57001c0,1.64996-1.34998,3-3,3H5.51001c.03998-.73004,.34998-1.42999,.87-1.95001L12.12,2.88c.56-.56,1.33002-.88,2.12-.88Z"/>
  <path class="cls-1" d="M13.73524,13.15383l1.57704,4.38329c.02524,.07014,.08046,.12537,.1506,.1506l4.38329,1.57704c.22049,.07933,.22049,.39115,0,.47048l-4.38329,1.57704c-.07014,.02524-.12537,.08046-.1506,.1506l-1.57704,4.38329c-.07933,.22049-.39115,.22049-.47048,0l-1.57704-4.38329c-.02524-.07014-.08046-.12537-.1506-.1506l-4.38329-1.57704c-.22049-.07933-.22049-.39115,0-.47048l4.38329-1.57704c.07014-.02524,.12537-.08046,.1506-.1506l1.57704-4.38329c.07933-.22049,.39115-.22049,.47048,0Z"/>
  <path class="cls-1" d="M20.73524,8.90383l.84942,2.36091c.02524,.07014,.08046,.12537,.1506,.1506l2.36091,.84942c.22049,.07933,.22049,.39115,0,.47048l-2.36091,.84942c-.07014,.02524-.12537,.08046-.1506,.1506l-.84942,2.36091c-.07933,.22049-.39115,.22049-.47048,0l-.84942-2.36091c-.02524-.07014-.08046-.12537-.1506-.1506l-2.36091-.84942c-.22049-.07933-.22049-.39115,0-.47048l2.36091-.84942c.07014-.02524,.12537-.08046,.1506-.1506l.84942-2.36091c.07933-.22049,.39115-.22049,.47048,0Z"/>
</svg>