<?xml version="1.0" encoding="UTF-8"?>
<svg xmlns="http://www.w3.org/2000/svg" viewBox="0 0 1920 1080">
  <defs>
    <style>
      .cls-1 {
        fill: none;
        stroke: #2b2a29;
        stroke-miterlimit: 10;
        stroke-width: 15px;
      }

      .cls-2, .cls-3 {
        fill: #8c8c8c;
      }

      .cls-3, .cls-4 {
        font-family: Consolas-Bold, Consolas;
        font-size: 160px;
      }

      .cls-5 {
        fill: #0f0e0e;
      }
    </style>
  </defs>
  <g id="Layer_1" data-name="Layer 1">
    <rect class="cls-5" width="1920" height="1080"/>
    <line class="cls-1" x1="512" x2="512" y2="1080"/>
  </g>
  <g id="Icons">
    <g>
      <path d="M189.93663,827.45514l54.09582,81.31769,53.63002-81.31769h-107.72584Zm184.39057-109.47114H244.03245l-32.57351-32.57351H113.73769c-17.91525,0-32.57351,14.65826-32.57351,32.57351v195.44178c0,17.91596,14.65826,32.57422,32.57351,32.57422H374.3272c17.91525,0,32.57351-14.65826,32.57351-32.57422v-162.86827c0-17.91525-14.65826-32.57351-32.57351-32.57351Zm-238.02059,190.78883l53.63002-81.31769,54.09582-81.55058,53.63002,81.55058,54.32871,81.31769H136.30661Zm53.63002-81.31769l54.09582,81.31769,53.63002-81.31769h-107.72584Z"/>
      <g>
        <path d="M374.3272,166.11231H244.03245l-32.57351-32.57351H113.73769c-17.91525,0-32.57351,14.65826-32.57351,32.57351v195.44178c0,17.91596,14.65826,32.57422,32.57351,32.57422H374.3272c17.91525,0,32.57351-14.65826,32.57351-32.57422V198.68582c0-17.91525-14.65826-32.57351-32.57351-32.57351Zm-199.28101,179.15538c-2.67547,0-5.0023-2.09394-5.23519-4.88656l-2.67547-18.72968c-.11645-1.16306-.81443-2.21038-1.86175-2.55902l-14.774-6.16607c-1.04732-.34863-2.32683-.23219-3.14126,.58153l-15.12334,11.16837c-1.9782,1.7453-5.11875,1.62885-7.09623-.2329l-8.84153-8.84082c-1.9782-1.9782-2.09394-5.11875-.34934-7.21339l11.28481-15.00689c.69798-.93087,.93016-2.21038,.46508-3.257l-6.04962-14.65826c-.46508-1.04732-1.5124-1.86175-2.67547-1.86175l-18.72968-2.79191c-2.67618-.2329-4.77011-2.44257-4.77011-5.23519v-12.56361c0-2.67618,2.09394-5.0023,4.77011-5.23519l18.72968-2.67547c1.16306-.11645,2.21038-.81443,2.67547-1.9782l6.04962-14.65826c.46508-1.04661,.2329-2.32612-.46508-3.14055l-11.28481-15.12334c-1.74459-1.9782-1.62885-5.11875,.34934-7.09694l8.84153-8.84153c1.97749-1.97749,5.11804-2.09394,7.09623-.34863l15.12334,11.2841c.93087,.69798,2.09394,.93087,3.257,.46579l14.65826-6.04962c1.04732-.46508,1.7453-1.5124,1.86175-2.67547l2.67547-18.72968c.2329-2.67618,2.55973-4.77011,5.23519-4.77011h12.56432c2.79191,0,5.0023,2.09394,5.23448,4.77011l2.79262,18.72968c0,1.16306,.81372,2.21038,1.86104,2.67547l14.65826,6.04962c1.04661,.46508,2.32683,.23219,3.257-.46579l15.0076-11.2841c2.09394-1.7453,5.23519-1.62885,7.21268,.34863l8.84153,8.84153c1.86104,1.9782,1.97749,5.11875,.23219,7.09694l-11.16766,15.12334c-.81443,.81443-.93087,2.09394-.58224,3.14055l6.16607,14.65826c.34934,1.16377,1.39596,1.86175,2.55902,1.9782l18.73039,2.67547c2.79191,.2329,4.88585,2.55902,4.88585,5.23519v12.56361c0,2.79262-2.09394,5.0023-4.88585,5.23519l-18.73039,2.79191c-1.16306,0-2.20967,.81443-2.55902,1.86175l-6.16607,14.65826c-.34863,1.04661-.23219,2.32612,.58224,3.257l11.16766,15.00689c1.7453,2.09465,1.62885,5.23519-.23219,7.21339l-8.84153,8.84082c-1.97749,1.86175-5.11875,1.9782-7.21268,.2329l-15.0076-11.16837c-.93016-.81372-2.21038-.93016-3.257-.58153l-14.65826,6.16607c-1.04732,.34863-1.86104,1.39596-1.86104,2.55902l-2.79262,18.72968c-.23219,2.79262-2.44257,4.88656-5.23448,4.88656h-12.56432Zm13.84383,11.63345l.11645-.11645c8.14285-.58153,14.774-7.21268,15.35624-14.65826l1.62814-11.16837,2.67618-3.95497,3.48989-1.39596,10.70257,7.91066c3.02481,2.55902,6.98049,4.07142,11.05192,4.07142,4.42077,0,8.72509-1.74459,11.86634-5.0023l8.95727-8.84153c3.02481-3.0241,4.65366-7.09623,4.77011-11.16766l29.43225,44.32341,49.7915-75.50096h-71.08019c6.63044-2.21038,11.2841-8.60935,11.2841-15.82203v-12.56361c0-7.32913-4.7694-13.61164-10.93547-15.82203l20.94006-31.52619,49.7915,75.73386,50.48877,75.50096H188.89002Z"/>
        <path d="M210.52806,259.29633c0,7.79421-3.02481,15.12334-8.60864,20.59143-5.46809,5.58383-12.79651,8.60864-20.59143,8.60864-7.79421,0-15.00689-3.02481-20.59072-8.60864-5.46809-5.46809-8.4929-12.79722-8.4929-20.59143s3.02481-15.12334,8.4929-20.59143c5.58383-5.46738,12.79651-8.49219,20.59072-8.49219,7.79492,0,15.12334,3.02481,20.59143,8.49219,5.58383,5.46809,8.60864,12.79722,8.60864,20.59143Z"/>
      </g>
      <text class="cls-4" transform="translate(605.26855 343.8208)"><tspan x="0" y="0">Your Projects</tspan></text>
      <text class="cls-4" transform="translate(605.26855 895.8208)"><tspan x="0" y="0">TOTK Dump</tspan></text>
    </g>
    <g>
      <path class="cls-2" d="M189.93663,827.45514l54.09582,81.31769,53.63002-81.31769h-107.72584Zm184.39057-109.47114H244.03245l-32.57351-32.57351H113.73769c-17.91525,0-32.57351,14.65826-32.57351,32.57351v195.44178c0,17.91596,14.65826,32.57422,32.57351,32.57422H374.3272c17.91525,0,32.57351-14.65826,32.57351-32.57422v-162.86827c0-17.91525-14.65826-32.57351-32.57351-32.57351Zm-238.02059,190.78883l53.63002-81.31769,54.09582-81.55058,53.63002,81.55058,54.32871,81.31769H136.30661Zm53.63002-81.31769l54.09582,81.31769,53.63002-81.31769h-107.72584Z"/>
      <g>
        <path class="cls-2" d="M374.3272,166.11231H244.03245l-32.57351-32.57351H113.73769c-17.91525,0-32.57351,14.65826-32.57351,32.57351v195.44178c0,17.91596,14.65826,32.57422,32.57351,32.57422H374.3272c17.91525,0,32.57351-14.65826,32.57351-32.57422V198.68582c0-17.91525-14.65826-32.57351-32.57351-32.57351Zm-199.28101,179.15538c-2.67547,0-5.0023-2.09394-5.23519-4.88656l-2.67547-18.72968c-.11645-1.16306-.81443-2.21038-1.86175-2.55902l-14.774-6.16607c-1.04732-.34863-2.32683-.23219-3.14126,.58153l-15.12334,11.16837c-1.9782,1.7453-5.11875,1.62885-7.09623-.2329l-8.84153-8.84082c-1.9782-1.9782-2.09394-5.11875-.34934-7.21339l11.28481-15.00689c.69798-.93087,.93016-2.21038,.46508-3.257l-6.04962-14.65826c-.46508-1.04732-1.5124-1.86175-2.67547-1.86175l-18.72968-2.79191c-2.67618-.2329-4.77011-2.44257-4.77011-5.23519v-12.56361c0-2.67618,2.09394-5.0023,4.77011-5.23519l18.72968-2.67547c1.16306-.11645,2.21038-.81443,2.67547-1.9782l6.04962-14.65826c.46508-1.04661,.2329-2.32612-.46508-3.14055l-11.28481-15.12334c-1.74459-1.9782-1.62885-5.11875,.34934-7.09694l8.84153-8.84153c1.97749-1.97749,5.11804-2.09394,7.09623-.34863l15.12334,11.2841c.93087,.69798,2.09394,.93087,3.257,.46579l14.65826-6.04962c1.04732-.46508,1.7453-1.5124,1.86175-2.67547l2.67547-18.72968c.2329-2.67618,2.55973-4.77011,5.23519-4.77011h12.56432c2.79191,0,5.0023,2.09394,5.23448,4.77011l2.79262,18.72968c0,1.16306,.81372,2.21038,1.86104,2.67547l14.65826,6.04962c1.04661,.46508,2.32683,.23219,3.257-.46579l15.0076-11.2841c2.09394-1.7453,5.23519-1.62885,7.21268,.34863l8.84153,8.84153c1.86104,1.9782,1.97749,5.11875,.23219,7.09694l-11.16766,15.12334c-.81443,.81443-.93087,2.09394-.58224,3.14055l6.16607,14.65826c.34934,1.16377,1.39596,1.86175,2.55902,1.9782l18.73039,2.67547c2.79191,.2329,4.88585,2.55902,4.88585,5.23519v12.56361c0,2.79262-2.09394,5.0023-4.88585,5.23519l-18.73039,2.79191c-1.16306,0-2.20967,.81443-2.55902,1.86175l-6.16607,14.65826c-.34863,1.04661-.23219,2.32612,.58224,3.257l11.16766,15.00689c1.7453,2.09465,1.62885,5.23519-.23219,7.21339l-8.84153,8.84082c-1.97749,1.86175-5.11875,1.9782-7.21268,.2329l-15.0076-11.16837c-.93016-.81372-2.21038-.93016-3.257-.58153l-14.65826,6.16607c-1.04732,.34863-1.86104,1.39596-1.86104,2.55902l-2.79262,18.72968c-.23219,2.79262-2.44257,4.88656-5.23448,4.88656h-12.56432Zm13.84383,11.63345l.11645-.11645c8.14285-.58153,14.774-7.21268,15.35624-14.65826l1.62814-11.16837,2.67618-3.95497,3.48989-1.39596,10.70257,7.91066c3.02481,2.55902,6.98049,4.07142,11.05192,4.07142,4.42077,0,8.72509-1.74459,11.86634-5.0023l8.95727-8.84153c3.02481-3.0241,4.65366-7.09623,4.77011-11.16766l29.43225,44.32341,49.7915-75.50096h-71.08019c6.63044-2.21038,11.2841-8.60935,11.2841-15.82203v-12.56361c0-7.32913-4.7694-13.61164-10.93547-15.82203l20.94006-31.52619,49.7915,75.73386,50.48877,75.50096H188.89002Z"/>
        <path class="cls-2" d="M210.52806,259.29633c0,7.79421-3.02481,15.12334-8.60864,20.59143-5.46809,5.58383-12.79651,8.60864-20.59143,8.60864-7.79421,0-15.00689-3.02481-20.59072-8.60864-5.46809-5.46809-8.4929-12.79722-8.4929-20.59143s3.02481-15.12334,8.4929-20.59143c5.58383-5.46738,12.79651-8.49219,20.59072-8.49219,7.79492,0,15.12334,3.02481,20.59143,8.49219,5.58383,5.46809,8.60864,12.79722,8.60864,20.59143Z"/>
      </g>
      <text class="cls-3" transform="translate(605.26855 343.8208)"><tspan x="0" y="0">Your Projects</tspan></text>
      <text class="cls-3" transform="translate(605.26855 895.8208)"><tspan x="0" y="0">TOTK Dump</tspan></text>
    </g>
  </g>
</svg>